# MagicaVoxel @ Ephtracy

# group
o 

# material
mtllib space.mtl
usemtl palette

# normals
vn -1 0 0
vn 1 0 0
vn 0 0 1
vn 0 0 -1
vn 0 -1 0
vn 0 1 0

# texcoords
vt 0.0136719 0.5
vt 0.0253906 0.5
vt 0.146484 0.5
vt 0.224609 0.5
vt 0.419922 0.5
vt 0.474609 0.5
vt 0.501953 0.5
vt 0.576172 0.5
vt 0.630859 0.5
vt 0.892578 0.5
vt 0.939453 0.5
vt 0.994141 0.5

# verts
v -2 0 2
v -2 0 -2
v -2 4 2
v -2 4 -2
v -1.8 1.4 -1.7
v -1.8 1.4 -1.8
v -1.8 1.4 -1.9
v -1.8 1.7 -1.7
v -1.8 1.7 -1.8
v -1.8 1.7 -1.9
v -1.7 1.3 -1.8
v -1.7 1.3 -1.9
v -1.7 1.4 -1.8
v -1.7 1.4 -1.9
v -1.7 1.7 -1.8
v -1.7 1.7 -1.9
v -1.7 1.8 -1.8
v -1.7 1.8 -1.9
v -1.6 0.6 -1.7
v -1.6 0.6 -1.8
v -1.6 0.6 -1.9
v -1.6 0.9 -1.7
v -1.6 0.9 -1.8
v -1.6 0.9 -1.9
v -1.5 0.5 -1.8
v -1.5 0.5 -1.9
v -1.5 0.6 -1.8
v -1.5 0.6 -1.9
v -1.5 0.9 -1.8
v -1.5 0.9 -1.9
v -1.5 1 -1.8
v -1.5 1 -1.9
v -1.5 2 -1.9
v -1.5 2 -2
v -1.5 2.2 -1.9
v -1.5 2.2 -2
v -1.5 2.3 -1.9
v -1.5 2.3 -2
v -1.5 2.4 -1.9
v -1.5 2.4 -2
v -1.5 2.9 -1.9
v -1.5 2.9 -2
v -1.5 3 -1.9
v -1.5 3 -2
v -1.5 3.1 -1.9
v -1.5 3.1 -2
v -1.5 3.2 -1.9
v -1.5 3.2 -2
v -1.5 3.4 -1.9
v -1.5 3.4 -2
v -1.5 3.5 -1.9
v -1.5 3.5 -2
v -1.5 3.6 -1.9
v -1.5 3.6 -2
v -1.5 3.7 -1.9
v -1.5 3.7 -2
v -1.4 2.2 -1.9
v -1.4 2.2 -2
v -1.4 2.3 -1.9
v -1.4 2.3 -2
v -1.4 3 -1.9
v -1.4 3 -2
v -1.4 3.1 -1.9
v -1.4 3.1 -2
v -1.4 3.5 -1.9
v -1.4 3.5 -2
v -1.4 3.6 -1.9
v -1.4 3.6 -2
v -1.1 1 -1.7
v -1.1 1 -1.8
v -1.1 1 -1.9
v -1.1 1.3 -1.7
v -1.1 1.3 -1.8
v -1.1 1.3 -1.9
v -1.1 1.9 -1.9
v -1.1 1.9 -2
v -1.1 2 -1.9
v -1.1 2 -2
v -1.1 2.1 -1.9
v -1.1 2.1 -2
v -1.1 2.2 -1.9
v -1.1 2.2 -2
v -1.1 2.6 -1.9
v -1.1 2.6 -2
v -1.1 2.7 -1.9
v -1.1 2.7 -2
v -1.1 2.8 -1.9
v -1.1 2.8 -2
v -1.1 2.9 -1.9
v -1.1 2.9 -2
v -1 0.9 -1.8
v -1 0.9 -1.9
v -1 1 -1.8
v -1 1 -1.9
v -1 1.3 -1.8
v -1 1.3 -1.9
v -1 1.4 -1.8
v -1 1.4 -1.9
v -1 2 -1.9
v -1 2 -2
v -1 2.1 -1.9
v -1 2.1 -2
v -1 2.7 -1.9
v -1 2.7 -2
v -1 2.8 -1.9
v -1 2.8 -2
v -0.9 3.2 -1.9
v -0.9 3.2 -2
v -0.9 3.3 -1.9
v -0.9 3.3 -2
v -0.9 3.4 -1.9
v -0.9 3.4 -2
v -0.9 3.5 -1.9
v -0.9 3.5 -2
v -0.8 3.3 -1.9
v -0.8 3.3 -2
v -0.8 3.4 -1.9
v -0.8 3.4 -2
v -0.7 2.4 -1.9
v -0.7 2.4 -2
v -0.7 2.6 -1.9
v -0.7 2.6 -2
v -0.7 2.7 -1.9
v -0.7 2.7 -2
v -0.7 2.8 -1.9
v -0.7 2.8 -2
v -0.6 2.6 -1.9
v -0.6 2.6 -2
v -0.6 2.7 -1.9
v -0.6 2.7 -2
v -0.5 0.9 -1.7
v -0.5 0.9 -1.8
v -0.5 0.9 -1.9
v -0.5 1.2 -1.7
v -0.5 1.2 -1.8
v -0.5 1.2 -1.9
v -0.4 0.8 -1.8
v -0.4 0.8 -1.9
v -0.4 0.9 -1.8
v -0.4 0.9 -1.9
v -0.4 1.2 -1.8
v -0.4 1.2 -1.9
v -0.4 1.3 -1.8
v -0.4 1.3 -1.9
v -0.4 2 -1.9
v -0.4 2 -2
v -0.4 2.1 -1.9
v -0.4 2.1 -2
v -0.4 2.2 -1.9
v -0.4 2.2 -2
v -0.4 2.3 -1.9
v -0.4 2.3 -2
v -0.4 2.8 -1.9
v -0.4 2.8 -2
v -0.4 3 -1.9
v -0.4 3 -2
v -0.4 3.1 -1.9
v -0.4 3.1 -2
v -0.4 3.2 -1.9
v -0.4 3.2 -2
v -0.3 0.7 -1.8
v -0.3 0.7 -1.9
v -0.3 0.8 -1.8
v -0.3 0.8 -1.9
v -0.3 1.3 -1.8
v -0.3 1.3 -1.9
v -0.3 1.4 -1.8
v -0.3 1.4 -1.9
v -0.3 3 -1.9
v -0.3 3 -2
v -0.3 3.1 -1.9
v -0.3 3.1 -2
v -0.3 3.6 -1.8
v -0.3 3.6 -1.9
v -0.3 4 -1.8
v -0.3 4 -1.9
v -0.2 2.1 -1.9
v -0.2 2.1 -2
v -0.2 2.2 -1.9
v -0.2 2.2 -2
v -0.2 3.4 -1.8
v -0.2 3.4 -1.9
v -0.2 3.6 -1.8
v -0.2 3.6 -1.9
v -0.0999999 3.2 -1.8
v -0.0999999 3.2 -1.9
v -0.0999999 3.4 -1.8
v -0.0999999 3.4 -1.9
v -0.0999999 3.5 -1.7
v -0.0999999 3.5 -1.8
v -0.0999999 3.9 -1.7
v -0.0999999 3.9 -1.8
v 2.38419e-07 1.9 -1.7
v 2.38419e-07 1.9 -1.8
v 2.38419e-07 1.9 -1.9
v 2.38419e-07 2.2 -1.7
v 2.38419e-07 2.2 -1.8
v 2.38419e-07 2.2 -1.9
v 2.38419e-07 3.1 -1.8
v 2.38419e-07 3.1 -1.9
v 2.38419e-07 3.2 -1.8
v 2.38419e-07 3.2 -1.9
v 0.1 1.8 -1.8
v 0.1 1.8 -1.9
v 0.1 1.9 -1.8
v 0.1 1.9 -1.9
v 0.1 2.2 -1.8
v 0.1 2.2 -1.9
v 0.1 2.3 -1.8
v 0.1 2.3 -1.9
v 0.1 3 -1.8
v 0.1 3 -1.9
v 0.1 3.1 -1.8
v 0.1 3.1 -1.9
v 0.1 3.2 -1.7
v 0.1 3.2 -1.8
v 0.1 3.5 -1.7
v 0.1 3.5 -1.8
v 0.2 2.9 -1.8
v 0.2 2.9 -1.9
v 0.2 3 -1.8
v 0.2 3 -1.9
v 0.3 3.8 -1.7
v 0.3 3.8 -1.8
v 0.3 4 -1.7
v 0.3 4 -1.8
v 0.4 1.1 -1.7
v 0.4 1.1 -1.8
v 0.4 1.1 -1.9
v 0.4 1.4 -1.7
v 0.4 1.4 -1.8
v 0.4 1.4 -1.9
v 0.4 2.8 -1.8
v 0.4 2.8 -1.9
v 0.4 2.9 -1.8
v 0.4 2.9 -1.9
v 0.4 3 -1.7
v 0.4 3 -1.8
v 0.4 3.1 -1.7
v 0.4 3.1 -1.8
v 0.4 3.3 -1.7
v 0.4 3.3 -1.8
v 0.4 3.6 -1.7
v 0.4 3.6 -1.8
v 0.5 1 -1.8
v 0.5 1 -1.9
v 0.5 1.1 -1.8
v 0.5 1.1 -1.9
v 0.5 1.4 -1.8
v 0.5 1.4 -1.9
v 0.5 1.5 -1.8
v 0.5 1.5 -1.9
v 0.6 2.7 -1.8
v 0.6 2.7 -1.9
v 0.6 2.8 -1.8
v 0.6 2.8 -1.9
v 0.6 3 -1.7
v 0.6 3 -1.8
v 0.6 3.1 -1.7
v 0.6 3.1 -1.8
v 0.6 3.2 -1.7
v 0.6 3.2 -1.8
v 0.6 3.3 -1.7
v 0.6 3.3 -1.8
v 0.6 3.7 -1.7
v 0.6 3.7 -1.8
v 0.6 3.8 -1.7
v 0.6 3.8 -1.8
v 0.7 1.7 -1.7
v 0.7 1.7 -1.8
v 0.7 1.7 -1.9
v 0.7 2 -1.7
v 0.7 2 -1.8
v 0.7 2 -1.9
v 0.7 2.8 -1.7
v 0.7 2.8 -1.8
v 0.7 3 -1.7
v 0.7 3 -1.8
v 0.7 3.5 -1.7
v 0.7 3.5 -1.8
v 0.7 3.6 -1.7
v 0.7 3.6 -1.8
v 0.8 1.6 -1.8
v 0.8 1.6 -1.9
v 0.8 1.7 -1.8
v 0.8 1.7 -1.9
v 0.8 2 -1.8
v 0.8 2 -1.9
v 0.8 2.1 -1.8
v 0.8 2.1 -1.9
v 0.8 3.6 -1.7
v 0.8 3.6 -1.8
v 0.8 3.7 -1.7
v 0.8 3.7 -1.8
v 0.8 3.9 -1.7
v 0.8 3.9 -1.8
v 0.8 4 -1.7
v 0.8 4 -1.8
v 0.9 3.5 -1.7
v 0.9 3.5 -1.8
v 0.9 3.6 -1.7
v 0.9 3.6 -1.8
v 0.9 3.9 -1.6
v 0.9 3.9 -1.7
v 0.9 4 -1.6
v 0.9 4 -1.7
v 1 3.2 -1.7
v 1 3.2 -1.8
v 1 3.3 -1.7
v 1 3.3 -1.8
v 1.1 3.4 -1.7
v 1.1 3.4 -1.8
v 1.1 3.5 -1.7
v 1.1 3.5 -1.8
v 1.1 3.9 -1.7
v 1.1 3.9 -1.8
v 1.1 4 -1.7
v 1.1 4 -1.8
v 1.2 1.2 -1.7
v 1.2 1.2 -1.8
v 1.2 1.2 -1.9
v 1.2 1.5 -1.7
v 1.2 1.5 -1.8
v 1.2 1.5 -1.9
v 1.2 2.9 -1.7
v 1.2 2.9 -1.8
v 1.2 3 -1.6
v 1.2 3 -1.7
v 1.2 3.2 -1.6
v 1.2 3.2 -1.8
v 1.3 1.1 -1.8
v 1.3 1.1 -1.9
v 1.3 1.2 -1.8
v 1.3 1.2 -1.9
v 1.3 1.5 -1.8
v 1.3 1.5 -1.9
v 1.3 1.6 -1.8
v 1.3 1.6 -1.9
v 1.3 3.2 -1.7
v 1.3 3.2 -1.8
v 1.3 3.3 -1.7
v 1.3 3.3 -1.8
v 1.3 3.4 -1.7
v 1.3 3.4 -1.8
v 1.3 3.6 -1.7
v 1.3 3.6 -1.8
v 1.3 3.7 -1.7
v 1.3 3.7 -1.8
v 1.3 3.9 -1.7
v 1.3 3.9 -1.8
v 1.5 3.3 -1.7
v 1.5 3.3 -1.8
v 1.5 3.4 -1.7
v 1.5 3.4 -1.8
v 1.6 3 -1.6
v 1.6 3 -1.8
v 1.6 3.2 -1.7
v 1.6 3.2 -1.8
v 1.6 3.3 -1.6
v 1.6 3.3 -1.7
v 1.6 3.6 -1.7
v 1.6 3.6 -1.8
v 1.6 3.7 -1.7
v 1.6 3.7 -1.8
v 1.6 3.9 -1.6
v 1.6 3.9 -1.8
v 1.6 4 -1.6
v 1.6 4 -1.8
v 1.9 0.1 2
v 1.9 0.1 -1.9
v 1.9 3.1 -1.8
v 1.9 3.1 -1.9
v 1.9 4 2
v 1.9 4 -1.8
v -1.9 0.1 2
v -1.9 0.1 -1.9
v -1.9 4 2
v -1.9 4 -1.9
v -1.7 2.2 -1.9
v -1.7 2.2 -2
v -1.7 2.3 -1.9
v -1.7 2.3 -2
v -1.7 3 -1.9
v -1.7 3 -2
v -1.7 3.1 -1.9
v -1.7 3.1 -2
v -1.7 3.5 -1.9
v -1.7 3.5 -2
v -1.7 3.6 -1.9
v -1.7 3.6 -2
v -1.6 2 -1.9
v -1.6 2 -2
v -1.6 2.2 -1.9
v -1.6 2.2 -2
v -1.6 2.3 -1.9
v -1.6 2.3 -2
v -1.6 2.4 -1.9
v -1.6 2.4 -2
v -1.6 2.9 -1.9
v -1.6 2.9 -2
v -1.6 3 -1.9
v -1.6 3 -2
v -1.6 3.1 -1.9
v -1.6 3.1 -2
v -1.6 3.2 -1.9
v -1.6 3.2 -2
v -1.6 3.4 -1.9
v -1.6 3.4 -2
v -1.6 3.5 -1.9
v -1.6 3.5 -2
v -1.6 3.6 -1.9
v -1.6 3.6 -2
v -1.6 3.7 -1.9
v -1.6 3.7 -2
v -1.4 1.3 -1.8
v -1.4 1.3 -1.9
v -1.4 1.4 -1.8
v -1.4 1.4 -1.9
v -1.4 1.7 -1.8
v -1.4 1.7 -1.9
v -1.4 1.8 -1.8
v -1.4 1.8 -1.9
v -1.3 1.4 -1.7
v -1.3 1.4 -1.8
v -1.3 1.4 -1.9
v -1.3 1.7 -1.7
v -1.3 1.7 -1.8
v -1.3 1.7 -1.9
v -1.3 2 -1.9
v -1.3 2 -2
v -1.3 2.1 -1.9
v -1.3 2.1 -2
v -1.3 2.7 -1.9
v -1.3 2.7 -2
v -1.3 2.8 -1.9
v -1.3 2.8 -2
v -1.2 0.5 -1.8
v -1.2 0.5 -1.9
v -1.2 0.6 -1.8
v -1.2 0.6 -1.9
v -1.2 0.9 -1.8
v -1.2 0.9 -1.9
v -1.2 1 -1.8
v -1.2 1 -1.9
v -1.2 1.9 -1.9
v -1.2 1.9 -2
v -1.2 2 -1.9
v -1.2 2 -2
v -1.2 2.1 -1.9
v -1.2 2.1 -2
v -1.2 2.2 -1.9
v -1.2 2.2 -2
v -1.2 2.6 -1.9
v -1.2 2.6 -2
v -1.2 2.7 -1.9
v -1.2 2.7 -2
v -1.2 2.8 -1.9
v -1.2 2.8 -2
v -1.2 2.9 -1.9
v -1.2 2.9 -2
v -1.1 0.6 -1.7
v -1.1 0.6 -1.8
v -1.1 0.6 -1.9
v -1.1 0.9 -1.7
v -1.1 0.9 -1.8
v -1.1 0.9 -1.9
v -1.1 3.3 -1.9
v -1.1 3.3 -2
v -1.1 3.4 -1.9
v -1.1 3.4 -2
v -1 3.2 -1.9
v -1 3.2 -2
v -1 3.3 -1.9
v -1 3.3 -2
v -1 3.4 -1.9
v -1 3.4 -2
v -1 3.5 -1.9
v -1 3.5 -2
v -0.9 2.6 -1.9
v -0.9 2.6 -2
v -0.9 2.7 -1.9
v -0.9 2.7 -2
v -0.8 2.4 -1.9
v -0.8 2.4 -2
v -0.8 2.6 -1.9
v -0.8 2.6 -2
v -0.8 2.7 -1.9
v -0.8 2.7 -2
v -0.8 2.8 -1.9
v -0.8 2.8 -2
v -0.7 0.9 -1.8
v -0.7 0.9 -1.9
v -0.7 1 -1.8
v -0.7 1 -1.9
v -0.7 1.3 -1.8
v -0.7 1.3 -1.9
v -0.7 1.4 -1.8
v -0.7 1.4 -1.9
v -0.7 2.1 -1.9
v -0.7 2.1 -2
v -0.7 2.2 -1.9
v -0.7 2.2 -2
v -0.6 1 -1.7
v -0.6 1 -1.8
v -0.6 1 -1.9
v -0.6 1.3 -1.7
v -0.6 1.3 -1.8
v -0.6 1.3 -1.9
v -0.6 3 -1.9
v -0.6 3 -2
v -0.6 3.1 -1.9
v -0.6 3.1 -2
v -0.5 2 -1.9
v -0.5 2 -2
v -0.5 2.1 -1.9
v -0.5 2.1 -2
v -0.5 2.2 -1.9
v -0.5 2.2 -2
v -0.5 2.3 -1.9
v -0.5 2.3 -2
v -0.5 2.8 -1.9
v -0.5 2.8 -2
v -0.5 3 -1.9
v -0.5 3 -2
v -0.5 3.1 -1.9
v -0.5 3.1 -2
v -0.5 3.2 -1.9
v -0.5 3.2 -2
v 2.38419e-07 0.7 -1.8
v 2.38419e-07 0.7 -1.9
v 2.38419e-07 0.8 -1.8
v 2.38419e-07 0.8 -1.9
v 2.38419e-07 1.3 -1.8
v 2.38419e-07 1.3 -1.9
v 2.38419e-07 1.4 -1.8
v 2.38419e-07 1.4 -1.9
v 2.38419e-07 3.8 -1.7
v 2.38419e-07 3.8 -1.8
v 2.38419e-07 3.9 -1.7
v 2.38419e-07 3.9 -1.8
v 0.1 0.8 -1.8
v 0.1 0.8 -1.9
v 0.1 0.9 -1.8
v 0.1 0.9 -1.9
v 0.1 1.2 -1.8
v 0.1 1.2 -1.9
v 0.1 1.3 -1.8
v 0.1 1.3 -1.9
v 0.1 3.6 -1.7
v 0.1 3.6 -1.8
v 0.1 3.8 -1.7
v 0.1 3.8 -1.8
v 0.2 0.9 -1.7
v 0.2 0.9 -1.8
v 0.2 0.9 -1.9
v 0.2 1.2 -1.7
v 0.2 1.2 -1.8
v 0.2 1.2 -1.9
v 0.2 3.2 -1.7
v 0.2 3.2 -1.8
v 0.2 3.5 -1.7
v 0.2 3.5 -1.8
v 0.3 3.5 -1.7
v 0.3 3.5 -1.8
v 0.3 3.6 -1.7
v 0.3 3.6 -1.8
v 0.4 1.8 -1.8
v 0.4 1.8 -1.9
v 0.4 1.9 -1.8
v 0.4 1.9 -1.9
v 0.4 2.2 -1.8
v 0.4 2.2 -1.9
v 0.4 2.3 -1.8
v 0.4 2.3 -1.9
v 0.4 3.8 -1.7
v 0.4 3.8 -1.8
v 0.4 4 -1.7
v 0.4 4 -1.8
v 0.5 1.9 -1.7
v 0.5 1.9 -1.8
v 0.5 1.9 -1.9
v 0.5 2.2 -1.7
v 0.5 2.2 -1.8
v 0.5 2.2 -1.9
v 0.5 3 -1.7
v 0.5 3 -1.8
v 0.5 3.1 -1.7
v 0.5 3.1 -1.8
v 0.5 3.3 -1.7
v 0.5 3.3 -1.8
v 0.5 3.6 -1.7
v 0.5 3.6 -1.8
v 0.7 3 -1.7
v 0.7 3 -1.8
v 0.7 3.1 -1.7
v 0.7 3.1 -1.8
v 0.7 3.7 -1.7
v 0.7 3.7 -1.8
v 0.7 3.8 -1.7
v 0.7 3.8 -1.8
v 0.8 1 -1.8
v 0.8 1 -1.9
v 0.8 1.1 -1.8
v 0.8 1.1 -1.9
v 0.8 1.4 -1.8
v 0.8 1.4 -1.9
v 0.8 1.5 -1.8
v 0.8 1.5 -1.9
v 0.8 3.5 -1.7
v 0.8 3.5 -1.8
v 0.8 3.6 -1.7
v 0.8 3.6 -1.8
v 0.9 1.1 -1.7
v 0.9 1.1 -1.8
v 0.9 1.1 -1.9
v 0.9 1.4 -1.7
v 0.9 1.4 -1.8
v 0.9 1.4 -1.9
v 0.9 2.9 -1.7
v 0.9 2.9 -1.8
v 0.9 3 -1.7
v 0.9 3 -1.8
v 0.9 3.2 -1.7
v 0.9 3.2 -1.8
v 0.9 3.3 -1.7
v 0.9 3.3 -1.8
v 1 3.5 -1.7
v 1 3.5 -1.8
v 1 3.7 -1.7
v 1 3.7 -1.8
v 1 3.9 -1.6
v 1 3.9 -1.8
v 1 4 -1.6
v 1 4 -1.8
v 1.1 1.6 -1.8
v 1.1 1.6 -1.9
v 1.1 1.7 -1.8
v 1.1 1.7 -1.9
v 1.1 2 -1.8
v 1.1 2 -1.9
v 1.1 2.1 -1.8
v 1.1 2.1 -1.9
v 1.1 2.8 -1.7
v 1.1 2.8 -1.8
v 1.1 2.9 -1.7
v 1.1 2.9 -1.8
v 1.1 3.2 -1.7
v 1.1 3.2 -1.8
v 1.1 3.3 -1.7
v 1.1 3.3 -1.8
v 1.2 1.7 -1.7
v 1.2 1.7 -1.8
v 1.2 1.7 -1.9
v 1.2 2 -1.7
v 1.2 2 -1.8
v 1.2 2 -1.9
v 1.2 3.4 -1.7
v 1.2 3.4 -1.8
v 1.2 3.5 -1.7
v 1.2 3.5 -1.8
v 1.3 2.7 -1.8
v 1.3 2.7 -1.9
v 1.3 2.8 -1.8
v 1.3 2.8 -1.9
v 1.3 2.9 -1.7
v 1.3 2.9 -1.8
v 1.3 3 -1.7
v 1.3 3 -1.8
v 1.3 3.9 -1.7
v 1.3 3.9 -1.8
v 1.3 4 -1.7
v 1.3 4 -1.8
v 1.4 3 -1.6
v 1.4 3 -1.8
v 1.4 3.1 -1.7
v 1.4 3.1 -1.8
v 1.4 3.2 -1.6
v 1.4 3.2 -1.7
v 1.4 3.7 -1.7
v 1.4 3.7 -1.8
v 1.4 3.8 -1.7
v 1.4 3.8 -1.8
v 1.5 2.8 -1.8
v 1.5 2.8 -1.9
v 1.5 2.9 -1.8
v 1.5 2.9 -1.9
v 1.5 3.1 -1.7
v 1.5 3.1 -1.8
v 1.5 3.2 -1.7
v 1.5 3.2 -1.8
v 1.5 3.8 -1.7
v 1.5 3.8 -1.8
v 1.5 3.9 -1.7
v 1.5 3.9 -1.8
v 1.6 1.1 -1.8
v 1.6 1.1 -1.9
v 1.6 1.2 -1.8
v 1.6 1.2 -1.9
v 1.6 1.5 -1.8
v 1.6 1.5 -1.9
v 1.6 1.6 -1.8
v 1.6 1.6 -1.9
v 1.6 3.4 -1.7
v 1.6 3.4 -1.8
v 1.6 3.6 -1.7
v 1.6 3.6 -1.8
v 1.7 1.2 -1.7
v 1.7 1.2 -1.8
v 1.7 1.2 -1.9
v 1.7 1.5 -1.7
v 1.7 1.5 -1.8
v 1.7 1.5 -1.9
v 1.7 2.9 -1.8
v 1.7 2.9 -1.9
v 1.7 3 -1.8
v 1.7 3 -1.9
v 1.8 3 -1.6
v 1.8 3 -1.8
v 1.8 3 -1.9
v 1.8 3.1 -1.8
v 1.8 3.1 -1.9
v 1.8 3.3 -1.6
v 1.8 3.3 -1.7
v 1.8 3.4 -1.7
v 1.8 3.4 -1.8
v 1.8 3.6 -1.7
v 1.8 3.6 -1.8
v 1.8 3.7 -1.7
v 1.8 3.7 -1.8
v 1.8 3.9 -1.6
v 1.8 3.9 -1.8
v 1.8 4 -1.6
v 1.8 4 -1.8
v 2 0 2
v 2 0 -2
v 2 4 2
v 2 4 -2
v -2 0 2
v -2 4 2
v -1.9 0.1 2
v -1.9 4 2
v 1.9 0.1 2
v 1.9 4 2
v 2 0 2
v 2 4 2
v 0.9 3.9 -1.6
v 0.9 4 -1.6
v 1 3.9 -1.6
v 1 4 -1.6
v 1.2 3 -1.6
v 1.2 3.2 -1.6
v 1.4 3 -1.6
v 1.4 3.2 -1.6
v 1.6 3 -1.6
v 1.6 3.3 -1.6
v 1.6 3.9 -1.6
v 1.6 4 -1.6
v 1.8 3 -1.6
v 1.8 3.3 -1.6
v 1.8 3.9 -1.6
v 1.8 4 -1.6
v -1.8 1.4 -1.7
v -1.8 1.7 -1.7
v -1.6 0.6 -1.7
v -1.6 0.9 -1.7
v -1.3 1.4 -1.7
v -1.3 1.7 -1.7
v -1.1 0.6 -1.7
v -1.1 0.9 -1.7
v -1.1 1 -1.7
v -1.1 1.3 -1.7
v -0.6 1 -1.7
v -0.6 1.3 -1.7
v -0.5 0.9 -1.7
v -0.5 1.2 -1.7
v -0.0999999 3.5 -1.7
v -0.0999999 3.9 -1.7
v 2.38419e-07 1.9 -1.7
v 2.38419e-07 2.2 -1.7
v 2.38419e-07 3.8 -1.7
v 2.38419e-07 3.9 -1.7
v 0.1 3.2 -1.7
v 0.1 3.5 -1.7
v 0.1 3.6 -1.7
v 0.1 3.8 -1.7
v 0.2 0.9 -1.7
v 0.2 1.2 -1.7
v 0.2 3.2 -1.7
v 0.2 3.5 -1.7
v 0.3 3.5 -1.7
v 0.3 3.6 -1.7
v 0.3 3.8 -1.7
v 0.3 4 -1.7
v 0.4 1.1 -1.7
v 0.4 1.4 -1.7
v 0.4 3 -1.7
v 0.4 3.1 -1.7
v 0.4 3.3 -1.7
v 0.4 3.6 -1.7
v 0.4 3.8 -1.7
v 0.4 4 -1.7
v 0.5 1.9 -1.7
v 0.5 2.2 -1.7
v 0.5 3 -1.7
v 0.5 3.1 -1.7
v 0.5 3.3 -1.7
v 0.5 3.6 -1.7
v 0.6 3 -1.7
v 0.6 3.1 -1.7
v 0.6 3.2 -1.7
v 0.6 3.3 -1.7
v 0.6 3.7 -1.7
v 0.6 3.8 -1.7
v 0.7 1.7 -1.7
v 0.7 2 -1.7
v 0.7 2.8 -1.7
v 0.7 3 -1.7
v 0.7 3.1 -1.7
v 0.7 3.5 -1.7
v 0.7 3.6 -1.7
v 0.7 3.7 -1.7
v 0.7 3.8 -1.7
v 0.8 3.5 -1.7
v 0.8 3.6 -1.7
v 0.8 3.7 -1.7
v 0.8 3.9 -1.7
v 0.8 4 -1.7
v 0.9 1.1 -1.7
v 0.9 1.4 -1.7
v 0.9 2.9 -1.7
v 0.9 3 -1.7
v 0.9 3.2 -1.7
v 0.9 3.3 -1.7
v 0.9 3.5 -1.7
v 0.9 3.6 -1.7
v 0.9 3.9 -1.7
v 0.9 4 -1.7
v 1 3.2 -1.7
v 1 3.3 -1.7
v 1 3.5 -1.7
v 1 3.7 -1.7
v 1.1 2.8 -1.7
v 1.1 2.9 -1.7
v 1.1 3.2 -1.7
v 1.1 3.3 -1.7
v 1.1 3.4 -1.7
v 1.1 3.5 -1.7
v 1.1 3.9 -1.7
v 1.1 4 -1.7
v 1.2 1.2 -1.7
v 1.2 1.5 -1.7
v 1.2 1.7 -1.7
v 1.2 2 -1.7
v 1.2 2.9 -1.7
v 1.2 3 -1.7
v 1.2 3.4 -1.7
v 1.2 3.5 -1.7
v 1.3 2.9 -1.7
v 1.3 3 -1.7
v 1.3 3.2 -1.7
v 1.3 3.3 -1.7
v 1.3 3.4 -1.7
v 1.3 3.6 -1.7
v 1.3 3.7 -1.7
v 1.3 3.9 -1.7
v 1.3 4 -1.7
v 1.4 3.1 -1.7
v 1.4 3.2 -1.7
v 1.4 3.7 -1.7
v 1.4 3.8 -1.7
v 1.5 3.1 -1.7
v 1.5 3.2 -1.7
v 1.5 3.3 -1.7
v 1.5 3.4 -1.7
v 1.5 3.8 -1.7
v 1.5 3.9 -1.7
v 1.6 3.2 -1.7
v 1.6 3.3 -1.7
v 1.6 3.4 -1.7
v 1.6 3.6 -1.7
v 1.6 3.7 -1.7
v 1.7 1.2 -1.7
v 1.7 1.5 -1.7
v 1.8 3.3 -1.7
v 1.8 3.4 -1.7
v 1.8 3.6 -1.7
v 1.8 3.7 -1.7
v -1.7 1.3 -1.8
v -1.7 1.4 -1.8
v -1.7 1.7 -1.8
v -1.7 1.8 -1.8
v -1.5 0.5 -1.8
v -1.5 0.6 -1.8
v -1.5 0.9 -1.8
v -1.5 1 -1.8
v -1.4 1.3 -1.8
v -1.4 1.4 -1.8
v -1.4 1.7 -1.8
v -1.4 1.8 -1.8
v -1.2 0.5 -1.8
v -1.2 0.6 -1.8
v -1.2 0.9 -1.8
v -1.2 1 -1.8
v -1 0.9 -1.8
v -1 1 -1.8
v -1 1.3 -1.8
v -1 1.4 -1.8
v -0.7 0.9 -1.8
v -0.7 1 -1.8
v -0.7 1.3 -1.8
v -0.7 1.4 -1.8
v -0.4 0.8 -1.8
v -0.4 0.9 -1.8
v -0.4 1.2 -1.8
v -0.4 1.3 -1.8
v -0.3 0.7 -1.8
v -0.3 0.8 -1.8
v -0.3 1.3 -1.8
v -0.3 1.4 -1.8
v -0.3 3.6 -1.8
v -0.3 4 -1.8
v -0.2 3.4 -1.8
v -0.2 3.6 -1.8
v -0.0999999 3.2 -1.8
v -0.0999999 3.4 -1.8
v -0.0999999 3.5 -1.8
v -0.0999999 3.9 -1.8
v 2.38419e-07 0.7 -1.8
v 2.38419e-07 0.8 -1.8
v 2.38419e-07 1.3 -1.8
v 2.38419e-07 1.4 -1.8
v 2.38419e-07 3.1 -1.8
v 2.38419e-07 3.2 -1.8
v 2.38419e-07 3.8 -1.8
v 2.38419e-07 3.9 -1.8
v 0.1 0.8 -1.8
v 0.1 0.9 -1.8
v 0.1 1.2 -1.8
v 0.1 1.3 -1.8
v 0.1 1.8 -1.8
v 0.1 1.9 -1.8
v 0.1 2.2 -1.8
v 0.1 2.3 -1.8
v 0.1 3 -1.8
v 0.1 3.1 -1.8
v 0.1 3.2 -1.8
v 0.1 3.5 -1.8
v 0.1 3.6 -1.8
v 0.1 3.8 -1.8
v 0.2 2.9 -1.8
v 0.2 3 -1.8
v 0.2 3.2 -1.8
v 0.2 3.5 -1.8
v 0.3 3.5 -1.8
v 0.3 3.6 -1.8
v 0.3 3.8 -1.8
v 0.3 4 -1.8
v 0.4 1.8 -1.8
v 0.4 1.9 -1.8
v 0.4 2.2 -1.8
v 0.4 2.3 -1.8
v 0.4 2.8 -1.8
v 0.4 2.9 -1.8
v 0.4 3 -1.8
v 0.4 3.1 -1.8
v 0.4 3.3 -1.8
v 0.4 3.6 -1.8
v 0.4 3.8 -1.8
v 0.4 4 -1.8
v 0.5 1 -1.8
v 0.5 1.1 -1.8
v 0.5 1.4 -1.8
v 0.5 1.5 -1.8
v 0.5 3 -1.8
v 0.5 3.1 -1.8
v 0.5 3.3 -1.8
v 0.5 3.6 -1.8
v 0.6 2.7 -1.8
v 0.6 2.8 -1.8
v 0.6 3 -1.8
v 0.6 3.1 -1.8
v 0.6 3.2 -1.8
v 0.6 3.3 -1.8
v 0.6 3.7 -1.8
v 0.6 3.8 -1.8
v 0.7 2.8 -1.8
v 0.7 3 -1.8
v 0.7 3.1 -1.8
v 0.7 3.5 -1.8
v 0.7 3.6 -1.8
v 0.7 3.7 -1.8
v 0.7 3.8 -1.8
v 0.8 1 -1.8
v 0.8 1.1 -1.8
v 0.8 1.4 -1.8
v 0.8 1.5 -1.8
v 0.8 1.6 -1.8
v 0.8 1.7 -1.8
v 0.8 2 -1.8
v 0.8 2.1 -1.8
v 0.8 3.5 -1.8
v 0.8 3.6 -1.8
v 0.8 3.7 -1.8
v 0.8 3.9 -1.8
v 0.8 4 -1.8
v 0.9 2.9 -1.8
v 0.9 3 -1.8
v 0.9 3.2 -1.8
v 0.9 3.3 -1.8
v 0.9 3.5 -1.8
v 0.9 3.6 -1.8
v 1 3.2 -1.8
v 1 3.3 -1.8
v 1 3.5 -1.8
v 1 3.7 -1.8
v 1 3.9 -1.8
v 1 4 -1.8
v 1.1 1.6 -1.8
v 1.1 1.7 -1.8
v 1.1 2 -1.8
v 1.1 2.1 -1.8
v 1.1 2.8 -1.8
v 1.1 2.9 -1.8
v 1.1 3.2 -1.8
v 1.1 3.3 -1.8
v 1.1 3.4 -1.8
v 1.1 3.5 -1.8
v 1.1 3.9 -1.8
v 1.1 4 -1.8
v 1.2 2.9 -1.8
v 1.2 3.2 -1.8
v 1.2 3.4 -1.8
v 1.2 3.5 -1.8
v 1.3 1.1 -1.8
v 1.3 1.2 -1.8
v 1.3 1.5 -1.8
v 1.3 1.6 -1.8
v 1.3 2.7 -1.8
v 1.3 2.8 -1.8
v 1.3 2.9 -1.8
v 1.3 3 -1.8
v 1.3 3.2 -1.8
v 1.3 3.3 -1.8
v 1.3 3.4 -1.8
v 1.3 3.6 -1.8
v 1.3 3.7 -1.8
v 1.3 3.9 -1.8
v 1.3 4 -1.8
v 1.4 3 -1.8
v 1.4 3.1 -1.8
v 1.4 3.7 -1.8
v 1.4 3.8 -1.8
v 1.5 2.8 -1.8
v 1.5 2.9 -1.8
v 1.5 3.1 -1.8
v 1.5 3.2 -1.8
v 1.5 3.3 -1.8
v 1.5 3.4 -1.8
v 1.5 3.8 -1.8
v 1.5 3.9 -1.8
v 1.6 1.1 -1.8
v 1.6 1.2 -1.8
v 1.6 1.5 -1.8
v 1.6 1.6 -1.8
v 1.6 3 -1.8
v 1.6 3.2 -1.8
v 1.6 3.4 -1.8
v 1.6 3.6 -1.8
v 1.6 3.7 -1.8
v 1.6 3.9 -1.8
v 1.6 4 -1.8
v 1.7 2.9 -1.8
v 1.7 3 -1.8
v 1.8 3.1 -1.8
v 1.8 3.4 -1.8
v 1.8 3.6 -1.8
v 1.8 3.7 -1.8
v 1.8 3.9 -1.8
v 1.8 4 -1.8
v 1.9 3.1 -1.8
v 1.9 4 -1.8
v -1.9 0.1 -1.9
v -1.9 4 -1.9
v -1.8 1.4 -1.9
v -1.8 1.7 -1.9
v -1.7 1.3 -1.9
v -1.7 1.4 -1.9
v -1.7 1.7 -1.9
v -1.7 1.8 -1.9
v -1.7 2.2 -1.9
v -1.7 2.3 -1.9
v -1.7 3 -1.9
v -1.7 3.1 -1.9
v -1.7 3.5 -1.9
v -1.7 3.6 -1.9
v -1.6 0.6 -1.9
v -1.6 0.9 -1.9
v -1.6 2 -1.9
v -1.6 2.2 -1.9
v -1.6 2.3 -1.9
v -1.6 2.4 -1.9
v -1.6 2.9 -1.9
v -1.6 3 -1.9
v -1.6 3.1 -1.9
v -1.6 3.2 -1.9
v -1.6 3.4 -1.9
v -1.6 3.5 -1.9
v -1.6 3.6 -1.9
v -1.6 3.7 -1.9
v -1.5 0.5 -1.9
v -1.5 0.6 -1.9
v -1.5 0.9 -1.9
v -1.5 1 -1.9
v -1.5 2 -1.9
v -1.5 2.2 -1.9
v -1.5 2.3 -1.9
v -1.5 2.4 -1.9
v -1.5 2.9 -1.9
v -1.5 3 -1.9
v -1.5 3.1 -1.9
v -1.5 3.2 -1.9
v -1.5 3.4 -1.9
v -1.5 3.5 -1.9
v -1.5 3.6 -1.9
v -1.5 3.7 -1.9
v -1.4 1.3 -1.9
v -1.4 1.4 -1.9
v -1.4 1.7 -1.9
v -1.4 1.8 -1.9
v -1.4 2.2 -1.9
v -1.4 2.3 -1.9
v -1.4 3 -1.9
v -1.4 3.1 -1.9
v -1.4 3.5 -1.9
v -1.4 3.6 -1.9
v -1.3 1.4 -1.9
v -1.3 1.7 -1.9
v -1.3 2 -1.9
v -1.3 2.1 -1.9
v -1.3 2.7 -1.9
v -1.3 2.8 -1.9
v -1.2 0.5 -1.9
v -1.2 0.6 -1.9
v -1.2 0.9 -1.9
v -1.2 1 -1.9
v -1.2 1.9 -1.9
v -1.2 2 -1.9
v -1.2 2.1 -1.9
v -1.2 2.2 -1.9
v -1.2 2.6 -1.9
v -1.2 2.7 -1.9
v -1.2 2.8 -1.9
v -1.2 2.9 -1.9
v -1.1 0.6 -1.9
v -1.1 0.9 -1.9
v -1.1 1 -1.9
v -1.1 1.3 -1.9
v -1.1 1.9 -1.9
v -1.1 2 -1.9
v -1.1 2.1 -1.9
v -1.1 2.2 -1.9
v -1.1 2.6 -1.9
v -1.1 2.7 -1.9
v -1.1 2.8 -1.9
v -1.1 2.9 -1.9
v -1.1 3.3 -1.9
v -1.1 3.4 -1.9
v -1 0.9 -1.9
v -1 1 -1.9
v -1 1.3 -1.9
v -1 1.4 -1.9
v -1 2 -1.9
v -1 2.1 -1.9
v -1 2.7 -1.9
v -1 2.8 -1.9
v -1 3.2 -1.9
v -1 3.3 -1.9
v -1 3.4 -1.9
v -1 3.5 -1.9
v -0.9 2.6 -1.9
v -0.9 2.7 -1.9
v -0.9 3.2 -1.9
v -0.9 3.3 -1.9
v -0.9 3.4 -1.9
v -0.9 3.5 -1.9
v -0.8 2.4 -1.9
v -0.8 2.6 -1.9
v -0.8 2.7 -1.9
v -0.8 2.8 -1.9
v -0.8 3.3 -1.9
v -0.8 3.4 -1.9
v -0.7 0.9 -1.9
v -0.7 1 -1.9
v -0.7 1.3 -1.9
v -0.7 1.4 -1.9
v -0.7 2.1 -1.9
v -0.7 2.2 -1.9
v -0.7 2.4 -1.9
v -0.7 2.6 -1.9
v -0.7 2.7 -1.9
v -0.7 2.8 -1.9
v -0.6 1 -1.9
v -0.6 1.3 -1.9
v -0.6 2.6 -1.9
v -0.6 2.7 -1.9
v -0.6 3 -1.9
v -0.6 3.1 -1.9
v -0.5 0.9 -1.9
v -0.5 1.2 -1.9
v -0.5 2 -1.9
v -0.5 2.1 -1.9
v -0.5 2.2 -1.9
v -0.5 2.3 -1.9
v -0.5 2.8 -1.9
v -0.5 3 -1.9
v -0.5 3.1 -1.9
v -0.5 3.2 -1.9
v -0.4 0.8 -1.9
v -0.4 0.9 -1.9
v -0.4 1.2 -1.9
v -0.4 1.3 -1.9
v -0.4 2 -1.9
v -0.4 2.1 -1.9
v -0.4 2.2 -1.9
v -0.4 2.3 -1.9
v -0.4 2.8 -1.9
v -0.4 3 -1.9
v -0.4 3.1 -1.9
v -0.4 3.2 -1.9
v -0.3 0.7 -1.9
v -0.3 0.8 -1.9
v -0.3 1.3 -1.9
v -0.3 1.4 -1.9
v -0.3 3 -1.9
v -0.3 3.1 -1.9
v -0.3 3.6 -1.9
v -0.3 4 -1.9
v -0.2 2.1 -1.9
v -0.2 2.2 -1.9
v -0.2 3.4 -1.9
v -0.2 3.6 -1.9
v -0.0999999 3.2 -1.9
v -0.0999999 3.4 -1.9
v 2.38419e-07 0.7 -1.9
v 2.38419e-07 0.8 -1.9
v 2.38419e-07 1.3 -1.9
v 2.38419e-07 1.4 -1.9
v 2.38419e-07 1.9 -1.9
v 2.38419e-07 2.2 -1.9
v 2.38419e-07 3.1 -1.9
v 2.38419e-07 3.2 -1.9
v 0.1 0.8 -1.9
v 0.1 0.9 -1.9
v 0.1 1.2 -1.9
v 0.1 1.3 -1.9
v 0.1 1.8 -1.9
v 0.1 1.9 -1.9
v 0.1 2.2 -1.9
v 0.1 2.3 -1.9
v 0.1 3 -1.9
v 0.1 3.1 -1.9
v 0.2 0.9 -1.9
v 0.2 1.2 -1.9
v 0.2 2.9 -1.9
v 0.2 3 -1.9
v 0.4 1.1 -1.9
v 0.4 1.4 -1.9
v 0.4 1.8 -1.9
v 0.4 1.9 -1.9
v 0.4 2.2 -1.9
v 0.4 2.3 -1.9
v 0.4 2.8 -1.9
v 0.4 2.9 -1.9
v 0.5 1 -1.9
v 0.5 1.1 -1.9
v 0.5 1.4 -1.9
v 0.5 1.5 -1.9
v 0.5 1.9 -1.9
v 0.5 2.2 -1.9
v 0.6 2.7 -1.9
v 0.6 2.8 -1.9
v 0.7 1.7 -1.9
v 0.7 2 -1.9
v 0.8 1 -1.9
v 0.8 1.1 -1.9
v 0.8 1.4 -1.9
v 0.8 1.5 -1.9
v 0.8 1.6 -1.9
v 0.8 1.7 -1.9
v 0.8 2 -1.9
v 0.8 2.1 -1.9
v 0.9 1.1 -1.9
v 0.9 1.4 -1.9
v 1.1 1.6 -1.9
v 1.1 1.7 -1.9
v 1.1 2 -1.9
v 1.1 2.1 -1.9
v 1.2 1.2 -1.9
v 1.2 1.5 -1.9
v 1.2 1.7 -1.9
v 1.2 2 -1.9
v 1.3 1.1 -1.9
v 1.3 1.2 -1.9
v 1.3 1.5 -1.9
v 1.3 1.6 -1.9
v 1.3 2.7 -1.9
v 1.3 2.8 -1.9
v 1.5 2.8 -1.9
v 1.5 2.9 -1.9
v 1.6 1.1 -1.9
v 1.6 1.2 -1.9
v 1.6 1.5 -1.9
v 1.6 1.6 -1.9
v 1.7 1.2 -1.9
v 1.7 1.5 -1.9
v 1.7 2.9 -1.9
v 1.7 3 -1.9
v 1.8 3 -1.9
v 1.8 3.1 -1.9
v 1.9 0.1 -1.9
v 1.9 3.1 -1.9
v -2 0 -2
v -2 4 -2
v -1.7 2.2 -2
v -1.7 2.3 -2
v -1.7 3 -2
v -1.7 3.1 -2
v -1.7 3.5 -2
v -1.7 3.6 -2
v -1.6 2 -2
v -1.6 2.2 -2
v -1.6 2.3 -2
v -1.6 2.4 -2
v -1.6 2.9 -2
v -1.6 3 -2
v -1.6 3.1 -2
v -1.6 3.2 -2
v -1.6 3.4 -2
v -1.6 3.5 -2
v -1.6 3.6 -2
v -1.6 3.7 -2
v -1.5 2 -2
v -1.5 2.2 -2
v -1.5 2.3 -2
v -1.5 2.4 -2
v -1.5 2.9 -2
v -1.5 3 -2
v -1.5 3.1 -2
v -1.5 3.2 -2
v -1.5 3.4 -2
v -1.5 3.5 -2
v -1.5 3.6 -2
v -1.5 3.7 -2
v -1.4 2.2 -2
v -1.4 2.3 -2
v -1.4 3 -2
v -1.4 3.1 -2
v -1.4 3.5 -2
v -1.4 3.6 -2
v -1.3 2 -2
v -1.3 2.1 -2
v -1.3 2.7 -2
v -1.3 2.8 -2
v -1.2 1.9 -2
v -1.2 2 -2
v -1.2 2.1 -2
v -1.2 2.2 -2
v -1.2 2.6 -2
v -1.2 2.7 -2
v -1.2 2.8 -2
v -1.2 2.9 -2
v -1.1 1.9 -2
v -1.1 2 -2
v -1.1 2.1 -2
v -1.1 2.2 -2
v -1.1 2.6 -2
v -1.1 2.7 -2
v -1.1 2.8 -2
v -1.1 2.9 -2
v -1.1 3.3 -2
v -1.1 3.4 -2
v -1 2 -2
v -1 2.1 -2
v -1 2.7 -2
v -1 2.8 -2
v -1 3.2 -2
v -1 3.3 -2
v -1 3.4 -2
v -1 3.5 -2
v -0.9 2.6 -2
v -0.9 2.7 -2
v -0.9 3.2 -2
v -0.9 3.3 -2
v -0.9 3.4 -2
v -0.9 3.5 -2
v -0.8 2.4 -2
v -0.8 2.6 -2
v -0.8 2.7 -2
v -0.8 2.8 -2
v -0.8 3.3 -2
v -0.8 3.4 -2
v -0.7 2.1 -2
v -0.7 2.2 -2
v -0.7 2.4 -2
v -0.7 2.6 -2
v -0.7 2.7 -2
v -0.7 2.8 -2
v -0.6 2.6 -2
v -0.6 2.7 -2
v -0.6 3 -2
v -0.6 3.1 -2
v -0.5 2 -2
v -0.5 2.1 -2
v -0.5 2.2 -2
v -0.5 2.3 -2
v -0.5 2.8 -2
v -0.5 3 -2
v -0.5 3.1 -2
v -0.5 3.2 -2
v -0.4 2 -2
v -0.4 2.1 -2
v -0.4 2.2 -2
v -0.4 2.3 -2
v -0.4 2.8 -2
v -0.4 3 -2
v -0.4 3.1 -2
v -0.4 3.2 -2
v -0.3 3 -2
v -0.3 3.1 -2
v -0.2 2.1 -2
v -0.2 2.2 -2
v 2 0 -2
v 2 4 -2
v -2 0 2
v 2 0 2
v -2 0 -2
v 2 0 -2
v -1.5 0.5 -1.8
v -1.2 0.5 -1.8
v -1.5 0.5 -1.9
v -1.2 0.5 -1.9
v -1.6 0.6 -1.7
v -1.1 0.6 -1.7
v -1.6 0.6 -1.8
v -1.5 0.6 -1.8
v -1.2 0.6 -1.8
v -1.1 0.6 -1.8
v -1.6 0.6 -1.9
v -1.5 0.6 -1.9
v -1.2 0.6 -1.9
v -1.1 0.6 -1.9
v -0.3 0.7 -1.8
v 2.38419e-07 0.7 -1.8
v -0.3 0.7 -1.9
v 2.38419e-07 0.7 -1.9
v -0.4 0.8 -1.8
v -0.3 0.8 -1.8
v 2.38419e-07 0.8 -1.8
v 0.1 0.8 -1.8
v -0.4 0.8 -1.9
v -0.3 0.8 -1.9
v 2.38419e-07 0.8 -1.9
v 0.1 0.8 -1.9
v -0.5 0.9 -1.7
v 0.2 0.9 -1.7
v -1 0.9 -1.8
v -0.7 0.9 -1.8
v -0.5 0.9 -1.8
v -0.4 0.9 -1.8
v 0.1 0.9 -1.8
v 0.2 0.9 -1.8
v -1 0.9 -1.9
v -0.7 0.9 -1.9
v -0.5 0.9 -1.9
v -0.4 0.9 -1.9
v 0.1 0.9 -1.9
v 0.2 0.9 -1.9
v -1.1 1 -1.7
v -0.6 1 -1.7
v -1.1 1 -1.8
v -1 1 -1.8
v -0.7 1 -1.8
v -0.6 1 -1.8
v 0.5 1 -1.8
v 0.8 1 -1.8
v -1.1 1 -1.9
v -1 1 -1.9
v -0.7 1 -1.9
v -0.6 1 -1.9
v 0.5 1 -1.9
v 0.8 1 -1.9
v 0.4 1.1 -1.7
v 0.9 1.1 -1.7
v 0.4 1.1 -1.8
v 0.5 1.1 -1.8
v 0.8 1.1 -1.8
v 0.9 1.1 -1.8
v 1.3 1.1 -1.8
v 1.6 1.1 -1.8
v 0.4 1.1 -1.9
v 0.5 1.1 -1.9
v 0.8 1.1 -1.9
v 0.9 1.1 -1.9
v 1.3 1.1 -1.9
v 1.6 1.1 -1.9
v 1.2 1.2 -1.7
v 1.7 1.2 -1.7
v 1.2 1.2 -1.8
v 1.3 1.2 -1.8
v 1.6 1.2 -1.8
v 1.7 1.2 -1.8
v 1.2 1.2 -1.9
v 1.3 1.2 -1.9
v 1.6 1.2 -1.9
v 1.7 1.2 -1.9
v -1.7 1.3 -1.8
v -1.4 1.3 -1.8
v -1.7 1.3 -1.9
v -1.4 1.3 -1.9
v -1.8 1.4 -1.7
v -1.3 1.4 -1.7
v -1.8 1.4 -1.8
v -1.7 1.4 -1.8
v -1.4 1.4 -1.8
v -1.3 1.4 -1.8
v -1.8 1.4 -1.9
v -1.7 1.4 -1.9
v -1.4 1.4 -1.9
v -1.3 1.4 -1.9
v 0.8 1.6 -1.8
v 1.1 1.6 -1.8
v 0.8 1.6 -1.9
v 1.1 1.6 -1.9
v 0.7 1.7 -1.7
v 1.2 1.7 -1.7
v 0.7 1.7 -1.8
v 0.8 1.7 -1.8
v 1.1 1.7 -1.8
v 1.2 1.7 -1.8
v 0.7 1.7 -1.9
v 0.8 1.7 -1.9
v 1.1 1.7 -1.9
v 1.2 1.7 -1.9
v 0.1 1.8 -1.8
v 0.4 1.8 -1.8
v 0.1 1.8 -1.9
v 0.4 1.8 -1.9
v 2.38419e-07 1.9 -1.7
v 0.5 1.9 -1.7
v 2.38419e-07 1.9 -1.8
v 0.1 1.9 -1.8
v 0.4 1.9 -1.8
v 0.5 1.9 -1.8
v 2.38419e-07 1.9 -1.9
v 0.1 1.9 -1.9
v 0.4 1.9 -1.9
v 0.5 1.9 -1.9
v -1.3 2.1 -1.9
v -1.2 2.1 -1.9
v -1.1 2.1 -1.9
v -1 2.1 -1.9
v -1.3 2.1 -2
v -1.2 2.1 -2
v -1.1 2.1 -2
v -1 2.1 -2
v -1.2 2.2 -1.9
v -1.1 2.2 -1.9
v -0.7 2.2 -1.9
v -0.5 2.2 -1.9
v -0.4 2.2 -1.9
v -0.2 2.2 -1.9
v -1.2 2.2 -2
v -1.1 2.2 -2
v -0.7 2.2 -2
v -0.5 2.2 -2
v -0.4 2.2 -2
v -0.2 2.2 -2
v -1.7 2.3 -1.9
v -1.6 2.3 -1.9
v -1.5 2.3 -1.9
v -1.4 2.3 -1.9
v -0.5 2.3 -1.9
v -0.4 2.3 -1.9
v -1.7 2.3 -2
v -1.6 2.3 -2
v -1.5 2.3 -2
v -1.4 2.3 -2
v -0.5 2.3 -2
v -0.4 2.3 -2
v -1.6 2.4 -1.9
v -1.5 2.4 -1.9
v -1.6 2.4 -2
v -1.5 2.4 -2
v 0.6 2.7 -1.8
v 1.3 2.7 -1.8
v -0.9 2.7 -1.9
v -0.8 2.7 -1.9
v -0.7 2.7 -1.9
v -0.6 2.7 -1.9
v 0.6 2.7 -1.9
v 1.3 2.7 -1.9
v -0.9 2.7 -2
v -0.8 2.7 -2
v -0.7 2.7 -2
v -0.6 2.7 -2
v 0.7 2.8 -1.7
v 1.1 2.8 -1.7
v 0.4 2.8 -1.8
v 0.6 2.8 -1.8
v 0.7 2.8 -1.8
v 1.1 2.8 -1.8
v 1.3 2.8 -1.8
v 1.5 2.8 -1.8
v -1.3 2.8 -1.9
v -1.2 2.8 -1.9
v -1.1 2.8 -1.9
v -1 2.8 -1.9
v -0.8 2.8 -1.9
v -0.7 2.8 -1.9
v 0.4 2.8 -1.9
v 0.6 2.8 -1.9
v 1.3 2.8 -1.9
v 1.5 2.8 -1.9
v -1.3 2.8 -2
v -1.2 2.8 -2
v -1.1 2.8 -2
v -1 2.8 -2
v -0.8 2.8 -2
v -0.7 2.8 -2
v 1.2 2.9 -1.7
v 1.3 2.9 -1.7
v 0.2 2.9 -1.8
v 0.4 2.9 -1.8
v 1.2 2.9 -1.8
v 1.3 2.9 -1.8
v 1.5 2.9 -1.8
v 1.7 2.9 -1.8
v -1.2 2.9 -1.9
v -1.1 2.9 -1.9
v 0.2 2.9 -1.9
v 0.4 2.9 -1.9
v 1.5 2.9 -1.9
v 1.7 2.9 -1.9
v -1.2 2.9 -2
v -1.1 2.9 -2
v 1.2 3 -1.6
v 1.4 3 -1.6
v 1.6 3 -1.6
v 1.8 3 -1.6
v 0.4 3 -1.7
v 0.5 3 -1.7
v 0.6 3 -1.7
v 0.7 3 -1.7
v 1.2 3 -1.7
v 1.3 3 -1.7
v 0.1 3 -1.8
v 0.2 3 -1.8
v 0.4 3 -1.8
v 0.5 3 -1.8
v 0.6 3 -1.8
v 0.7 3 -1.8
v 1.3 3 -1.8
v 1.4 3 -1.8
v 1.6 3 -1.8
v 1.7 3 -1.8
v 1.8 3 -1.8
v 0.1 3 -1.9
v 0.2 3 -1.9
v 1.7 3 -1.9
v 1.8 3 -1.9
v 1.4 3.1 -1.7
v 1.5 3.1 -1.7
v 2.38419e-07 3.1 -1.8
v 0.1 3.1 -1.8
v 1.4 3.1 -1.8
v 1.5 3.1 -1.8
v 1.8 3.1 -1.8
v 1.9 3.1 -1.8
v -1.7 3.1 -1.9
v -1.6 3.1 -1.9
v -1.5 3.1 -1.9
v -1.4 3.1 -1.9
v -0.6 3.1 -1.9
v -0.5 3.1 -1.9
v -0.4 3.1 -1.9
v -0.3 3.1 -1.9
v 2.38419e-07 3.1 -1.9
v 0.1 3.1 -1.9
v 1.8 3.1 -1.9
v 1.9 3.1 -1.9
v -1.7 3.1 -2
v -1.6 3.1 -2
v -1.5 3.1 -2
v -1.4 3.1 -2
v -0.6 3.1 -2
v -0.5 3.1 -2
v -0.4 3.1 -2
v -0.3 3.1 -2
v 0.1 3.2 -1.7
v 0.2 3.2 -1.7
v 0.6 3.2 -1.7
v 0.9 3.2 -1.7
v 1 3.2 -1.7
v 1.1 3.2 -1.7
v 1.5 3.2 -1.7
v 1.6 3.2 -1.7
v -0.0999999 3.2 -1.8
v 2.38419e-07 3.2 -1.8
v 0.1 3.2 -1.8
v 0.2 3.2 -1.8
v 0.6 3.2 -1.8
v 0.9 3.2 -1.8
v 1 3.2 -1.8
v 1.1 3.2 -1.8
v 1.5 3.2 -1.8
v 1.6 3.2 -1.8
v -1.6 3.2 -1.9
v -1.5 3.2 -1.9
v -0.5 3.2 -1.9
v -0.4 3.2 -1.9
v -0.0999999 3.2 -1.9
v 2.38419e-07 3.2 -1.9
v -1.6 3.2 -2
v -1.5 3.2 -2
v -0.5 3.2 -2
v -0.4 3.2 -2
v 0.4 3.3 -1.7
v 0.5 3.3 -1.7
v 0.4 3.3 -1.8
v 0.5 3.3 -1.8
v 1.1 3.4 -1.7
v 1.2 3.4 -1.7
v 1.3 3.4 -1.7
v 1.5 3.4 -1.7
v -0.2 3.4 -1.8
v -0.0999999 3.4 -1.8
v 1.1 3.4 -1.8
v 1.2 3.4 -1.8
v 1.3 3.4 -1.8
v 1.5 3.4 -1.8
v -1.1 3.4 -1.9
v -1 3.4 -1.9
v -0.9 3.4 -1.9
v -0.8 3.4 -1.9
v -0.2 3.4 -1.9
v -0.0999999 3.4 -1.9
v -1.1 3.4 -2
v -1 3.4 -2
v -0.9 3.4 -2
v -0.8 3.4 -2
v -0.0999999 3.5 -1.7
v 0.1 3.5 -1.7
v 0.2 3.5 -1.7
v 0.3 3.5 -1.7
v 0.7 3.5 -1.7
v 0.8 3.5 -1.7
v 0.9 3.5 -1.7
v 1 3.5 -1.7
v -0.0999999 3.5 -1.8
v 0.1 3.5 -1.8
v 0.2 3.5 -1.8
v 0.3 3.5 -1.8
v 0.7 3.5 -1.8
v 0.8 3.5 -1.8
v 0.9 3.5 -1.8
v 1 3.5 -1.8
v -1 3.5 -1.9
v -0.9 3.5 -1.9
v -1 3.5 -2
v -0.9 3.5 -2
v 0.8 3.6 -1.7
v 0.9 3.6 -1.7
v 1.6 3.6 -1.7
v 1.8 3.6 -1.7
v -0.3 3.6 -1.8
v -0.2 3.6 -1.8
v 0.8 3.6 -1.8
v 0.9 3.6 -1.8
v 1.6 3.6 -1.8
v 1.8 3.6 -1.8
v -1.7 3.6 -1.9
v -1.6 3.6 -1.9
v -1.5 3.6 -1.9
v -1.4 3.6 -1.9
v -0.3 3.6 -1.9
v -0.2 3.6 -1.9
v -1.7 3.6 -2
v -1.6 3.6 -2
v -1.5 3.6 -2
v -1.4 3.6 -2
v 0.6 3.7 -1.7
v 0.7 3.7 -1.7
v 1.3 3.7 -1.7
v 1.4 3.7 -1.7
v 0.6 3.7 -1.8
v 0.7 3.7 -1.8
v 1.3 3.7 -1.8
v 1.4 3.7 -1.8
v -1.6 3.7 -1.9
v -1.5 3.7 -1.9
v -1.6 3.7 -2
v -1.5 3.7 -2
v 0.3 3.8 -1.7
v 0.4 3.8 -1.7
v 1.4 3.8 -1.7
v 1.5 3.8 -1.7
v 0.3 3.8 -1.8
v 0.4 3.8 -1.8
v 1.4 3.8 -1.8
v 1.5 3.8 -1.8
v 0.9 3.9 -1.6
v 1 3.9 -1.6
v 1.6 3.9 -1.6
v 1.8 3.9 -1.6
v 0.8 3.9 -1.7
v 0.9 3.9 -1.7
v 1.1 3.9 -1.7
v 1.3 3.9 -1.7
v 0.8 3.9 -1.8
v 1 3.9 -1.8
v 1.1 3.9 -1.8
v 1.3 3.9 -1.8
v 1.6 3.9 -1.8
v 1.8 3.9 -1.8
v -1.9 0.1 2
v 1.9 0.1 2
v -1.9 0.1 -1.9
v 1.9 0.1 -1.9
v -1.6 0.9 -1.7
v -1.1 0.9 -1.7
v -1.6 0.9 -1.8
v -1.5 0.9 -1.8
v -1.2 0.9 -1.8
v -1.1 0.9 -1.8
v -1.6 0.9 -1.9
v -1.5 0.9 -1.9
v -1.2 0.9 -1.9
v -1.1 0.9 -1.9
v -1.5 1 -1.8
v -1.2 1 -1.8
v -1.5 1 -1.9
v -1.2 1 -1.9
v -0.5 1.2 -1.7
v 0.2 1.2 -1.7
v -0.5 1.2 -1.8
v -0.4 1.2 -1.8
v 0.1 1.2 -1.8
v 0.2 1.2 -1.8
v -0.5 1.2 -1.9
v -0.4 1.2 -1.9
v 0.1 1.2 -1.9
v 0.2 1.2 -1.9
v -1.1 1.3 -1.7
v -0.6 1.3 -1.7
v -1.1 1.3 -1.8
v -1 1.3 -1.8
v -0.7 1.3 -1.8
v -0.6 1.3 -1.8
v -0.4 1.3 -1.8
v -0.3 1.3 -1.8
v 2.38419e-07 1.3 -1.8
v 0.1 1.3 -1.8
v -1.1 1.3 -1.9
v -1 1.3 -1.9
v -0.7 1.3 -1.9
v -0.6 1.3 -1.9
v -0.4 1.3 -1.9
v -0.3 1.3 -1.9
v 2.38419e-07 1.3 -1.9
v 0.1 1.3 -1.9
v 0.4 1.4 -1.7
v 0.9 1.4 -1.7
v -1 1.4 -1.8
v -0.7 1.4 -1.8
v -0.3 1.4 -1.8
v 2.38419e-07 1.4 -1.8
v 0.4 1.4 -1.8
v 0.5 1.4 -1.8
v 0.8 1.4 -1.8
v 0.9 1.4 -1.8
v -1 1.4 -1.9
v -0.7 1.4 -1.9
v -0.3 1.4 -1.9
v 2.38419e-07 1.4 -1.9
v 0.4 1.4 -1.9
v 0.5 1.4 -1.9
v 0.8 1.4 -1.9
v 0.9 1.4 -1.9
v 1.2 1.5 -1.7
v 1.7 1.5 -1.7
v 0.5 1.5 -1.8
v 0.8 1.5 -1.8
v 1.2 1.5 -1.8
v 1.3 1.5 -1.8
v 1.6 1.5 -1.8
v 1.7 1.5 -1.8
v 0.5 1.5 -1.9
v 0.8 1.5 -1.9
v 1.2 1.5 -1.9
v 1.3 1.5 -1.9
v 1.6 1.5 -1.9
v 1.7 1.5 -1.9
v 1.3 1.6 -1.8
v 1.6 1.6 -1.8
v 1.3 1.6 -1.9
v 1.6 1.6 -1.9
v -1.8 1.7 -1.7
v -1.3 1.7 -1.7
v -1.8 1.7 -1.8
v -1.7 1.7 -1.8
v -1.4 1.7 -1.8
v -1.3 1.7 -1.8
v -1.8 1.7 -1.9
v -1.7 1.7 -1.9
v -1.4 1.7 -1.9
v -1.3 1.7 -1.9
v -1.7 1.8 -1.8
v -1.4 1.8 -1.8
v -1.7 1.8 -1.9
v -1.4 1.8 -1.9
v -1.2 1.9 -1.9
v -1.1 1.9 -1.9
v -1.2 1.9 -2
v -1.1 1.9 -2
v 0.7 2 -1.7
v 1.2 2 -1.7
v 0.7 2 -1.8
v 0.8 2 -1.8
v 1.1 2 -1.8
v 1.2 2 -1.8
v -1.6 2 -1.9
v -1.5 2 -1.9
v -1.3 2 -1.9
v -1.2 2 -1.9
v -1.1 2 -1.9
v -1 2 -1.9
v -0.5 2 -1.9
v -0.4 2 -1.9
v 0.7 2 -1.9
v 0.8 2 -1.9
v 1.1 2 -1.9
v 1.2 2 -1.9
v -1.6 2 -2
v -1.5 2 -2
v -1.3 2 -2
v -1.2 2 -2
v -1.1 2 -2
v -1 2 -2
v -0.5 2 -2
v -0.4 2 -2
v 0.8 2.1 -1.8
v 1.1 2.1 -1.8
v -0.7 2.1 -1.9
v -0.5 2.1 -1.9
v -0.4 2.1 -1.9
v -0.2 2.1 -1.9
v 0.8 2.1 -1.9
v 1.1 2.1 -1.9
v -0.7 2.1 -2
v -0.5 2.1 -2
v -0.4 2.1 -2
v -0.2 2.1 -2
v 2.38419e-07 2.2 -1.7
v 0.5 2.2 -1.7
v 2.38419e-07 2.2 -1.8
v 0.1 2.2 -1.8
v 0.4 2.2 -1.8
v 0.5 2.2 -1.8
v -1.7 2.2 -1.9
v -1.6 2.2 -1.9
v -1.5 2.2 -1.9
v -1.4 2.2 -1.9
v 2.38419e-07 2.2 -1.9
v 0.1 2.2 -1.9
v 0.4 2.2 -1.9
v 0.5 2.2 -1.9
v -1.7 2.2 -2
v -1.6 2.2 -2
v -1.5 2.2 -2
v -1.4 2.2 -2
v 0.1 2.3 -1.8
v 0.4 2.3 -1.8
v 0.1 2.3 -1.9
v 0.4 2.3 -1.9
v -0.8 2.4 -1.9
v -0.7 2.4 -1.9
v -0.8 2.4 -2
v -0.7 2.4 -2
v -1.2 2.6 -1.9
v -1.1 2.6 -1.9
v -0.9 2.6 -1.9
v -0.8 2.6 -1.9
v -0.7 2.6 -1.9
v -0.6 2.6 -1.9
v -1.2 2.6 -2
v -1.1 2.6 -2
v -0.9 2.6 -2
v -0.8 2.6 -2
v -0.7 2.6 -2
v -0.6 2.6 -2
v -1.3 2.7 -1.9
v -1.2 2.7 -1.9
v -1.1 2.7 -1.9
v -1 2.7 -1.9
v -1.3 2.7 -2
v -1.2 2.7 -2
v -1.1 2.7 -2
v -1 2.7 -2
v -0.5 2.8 -1.9
v -0.4 2.8 -1.9
v -0.5 2.8 -2
v -0.4 2.8 -2
v 0.9 2.9 -1.7
v 1.1 2.9 -1.7
v 0.9 2.9 -1.8
v 1.1 2.9 -1.8
v -1.6 2.9 -1.9
v -1.5 2.9 -1.9
v -1.6 2.9 -2
v -1.5 2.9 -2
v 0.7 3 -1.7
v 0.9 3 -1.7
v 0.7 3 -1.8
v 0.9 3 -1.8
v -1.7 3 -1.9
v -1.6 3 -1.9
v -1.5 3 -1.9
v -1.4 3 -1.9
v -0.6 3 -1.9
v -0.5 3 -1.9
v -0.4 3 -1.9
v -0.3 3 -1.9
v -1.7 3 -2
v -1.6 3 -2
v -1.5 3 -2
v -1.4 3 -2
v -0.6 3 -2
v -0.5 3 -2
v -0.4 3 -2
v -0.3 3 -2
v 0.4 3.1 -1.7
v 0.5 3.1 -1.7
v 0.6 3.1 -1.7
v 0.7 3.1 -1.7
v 0.4 3.1 -1.8
v 0.5 3.1 -1.8
v 0.6 3.1 -1.8
v 0.7 3.1 -1.8
v 1.2 3.2 -1.6
v 1.4 3.2 -1.6
v 1.3 3.2 -1.7
v 1.4 3.2 -1.7
v 1.2 3.2 -1.8
v 1.3 3.2 -1.8
v -1 3.2 -1.9
v -0.9 3.2 -1.9
v -1 3.2 -2
v -0.9 3.2 -2
v 1.6 3.3 -1.6
v 1.8 3.3 -1.6
v 0.6 3.3 -1.7
v 0.9 3.3 -1.7
v 1 3.3 -1.7
v 1.1 3.3 -1.7
v 1.3 3.3 -1.7
v 1.5 3.3 -1.7
v 1.6 3.3 -1.7
v 1.8 3.3 -1.7
v 0.6 3.3 -1.8
v 0.9 3.3 -1.8
v 1 3.3 -1.8
v 1.1 3.3 -1.8
v 1.3 3.3 -1.8
v 1.5 3.3 -1.8
v -1.1 3.3 -1.9
v -1 3.3 -1.9
v -0.9 3.3 -1.9
v -0.8 3.3 -1.9
v -1.1 3.3 -2
v -1 3.3 -2
v -0.9 3.3 -2
v -0.8 3.3 -2
v 1.6 3.4 -1.7
v 1.8 3.4 -1.7
v 1.6 3.4 -1.8
v 1.8 3.4 -1.8
v -1.6 3.4 -1.9
v -1.5 3.4 -1.9
v -1.6 3.4 -2
v -1.5 3.4 -2
v 1.1 3.5 -1.7
v 1.2 3.5 -1.7
v 1.1 3.5 -1.8
v 1.2 3.5 -1.8
v -1.7 3.5 -1.9
v -1.6 3.5 -1.9
v -1.5 3.5 -1.9
v -1.4 3.5 -1.9
v -1.7 3.5 -2
v -1.6 3.5 -2
v -1.5 3.5 -2
v -1.4 3.5 -2
v 0.1 3.6 -1.7
v 0.3 3.6 -1.7
v 0.4 3.6 -1.7
v 0.5 3.6 -1.7
v 0.7 3.6 -1.7
v 0.8 3.6 -1.7
v 1.3 3.6 -1.7
v 1.6 3.6 -1.7
v 0.1 3.6 -1.8
v 0.3 3.6 -1.8
v 0.4 3.6 -1.8
v 0.5 3.6 -1.8
v 0.7 3.6 -1.8
v 0.8 3.6 -1.8
v 1.3 3.6 -1.8
v 1.6 3.6 -1.8
v 0.8 3.7 -1.7
v 1 3.7 -1.7
v 1.6 3.7 -1.7
v 1.8 3.7 -1.7
v 0.8 3.7 -1.8
v 1 3.7 -1.8
v 1.6 3.7 -1.8
v 1.8 3.7 -1.8
v 2.38419e-07 3.8 -1.7
v 0.1 3.8 -1.7
v 0.6 3.8 -1.7
v 0.7 3.8 -1.7
v 2.38419e-07 3.8 -1.8
v 0.1 3.8 -1.8
v 0.6 3.8 -1.8
v 0.7 3.8 -1.8
v -0.0999999 3.9 -1.7
v 2.38419e-07 3.9 -1.7
v 1.3 3.9 -1.7
v 1.5 3.9 -1.7
v -0.0999999 3.9 -1.8
v 2.38419e-07 3.9 -1.8
v 1.3 3.9 -1.8
v 1.5 3.9 -1.8
v -2 4 2
v -1.9 4 2
v 1.9 4 2
v 2 4 2
v 0.9 4 -1.6
v 1 4 -1.6
v 1.6 4 -1.6
v 1.8 4 -1.6
v 0.3 4 -1.7
v 0.4 4 -1.7
v 0.8 4 -1.7
v 0.9 4 -1.7
v 1.1 4 -1.7
v 1.3 4 -1.7
v -0.3 4 -1.8
v 0.3 4 -1.8
v 0.4 4 -1.8
v 0.8 4 -1.8
v 1 4 -1.8
v 1.1 4 -1.8
v 1.3 4 -1.8
v 1.6 4 -1.8
v 1.8 4 -1.8
v 1.9 4 -1.8
v -1.9 4 -1.9
v -0.3 4 -1.9
v 1.9 4 -1.9
v -2 4 -2
v 2 4 -2

# faces
f 3/12/1 2/12/1 1/12/1
f 4/12/1 2/12/1 3/12/1
f 8/10/1 6/10/1 5/10/1
f 9/8/1 7/8/1 6/8/1
f 9/10/1 6/10/1 8/10/1
f 10/8/1 7/8/1 9/8/1
f 13/8/1 12/8/1 11/8/1
f 14/8/1 12/8/1 13/8/1
f 17/8/1 16/8/1 15/8/1
f 18/8/1 16/8/1 17/8/1
f 22/6/1 20/6/1 19/6/1
f 23/8/1 21/8/1 20/8/1
f 23/6/1 20/6/1 22/6/1
f 24/8/1 21/8/1 23/8/1
f 27/8/1 26/8/1 25/8/1
f 28/8/1 26/8/1 27/8/1
f 31/8/1 30/8/1 29/8/1
f 32/8/1 30/8/1 31/8/1
f 35/12/1 34/12/1 33/12/1
f 36/12/1 34/12/1 35/12/1
f 39/12/1 38/12/1 37/12/1
f 40/12/1 38/12/1 39/12/1
f 43/12/1 42/12/1 41/12/1
f 44/12/1 42/12/1 43/12/1
f 47/12/1 46/12/1 45/12/1
f 48/12/1 46/12/1 47/12/1
f 51/12/1 50/12/1 49/12/1
f 52/12/1 50/12/1 51/12/1
f 55/12/1 54/12/1 53/12/1
f 56/12/1 54/12/1 55/12/1
f 59/12/1 58/12/1 57/12/1
f 60/12/1 58/12/1 59/12/1
f 63/12/1 62/12/1 61/12/1
f 64/12/1 62/12/1 63/12/1
f 67/12/1 66/12/1 65/12/1
f 68/12/1 66/12/1 67/12/1
f 72/1/1 70/1/1 69/1/1
f 73/8/1 71/8/1 70/8/1
f 73/1/1 70/1/1 72/1/1
f 74/8/1 71/8/1 73/8/1
f 77/12/1 76/12/1 75/12/1
f 78/12/1 76/12/1 77/12/1
f 81/12/1 80/12/1 79/12/1
f 82/12/1 80/12/1 81/12/1
f 85/12/1 84/12/1 83/12/1
f 86/12/1 84/12/1 85/12/1
f 89/12/1 88/12/1 87/12/1
f 90/12/1 88/12/1 89/12/1
f 93/8/1 92/8/1 91/8/1
f 94/8/1 92/8/1 93/8/1
f 97/8/1 96/8/1 95/8/1
f 98/8/1 96/8/1 97/8/1
f 101/12/1 100/12/1 99/12/1
f 102/12/1 100/12/1 101/12/1
f 105/12/1 104/12/1 103/12/1
f 106/12/1 104/12/1 105/12/1
f 109/12/1 108/12/1 107/12/1
f 110/12/1 108/12/1 109/12/1
f 113/12/1 112/12/1 111/12/1
f 114/12/1 112/12/1 113/12/1
f 117/12/1 116/12/1 115/12/1
f 118/12/1 116/12/1 117/12/1
f 121/12/1 120/12/1 119/12/1
f 122/12/1 120/12/1 121/12/1
f 125/12/1 124/12/1 123/12/1
f 126/12/1 124/12/1 125/12/1
f 129/12/1 128/12/1 127/12/1
f 130/12/1 128/12/1 129/12/1
f 134/5/1 132/5/1 131/5/1
f 135/8/1 133/8/1 132/8/1
f 135/5/1 132/5/1 134/5/1
f 136/8/1 133/8/1 135/8/1
f 139/8/1 138/8/1 137/8/1
f 140/8/1 138/8/1 139/8/1
f 143/8/1 142/8/1 141/8/1
f 144/8/1 142/8/1 143/8/1
f 147/12/1 146/12/1 145/12/1
f 148/12/1 146/12/1 147/12/1
f 151/12/1 150/12/1 149/12/1
f 152/12/1 150/12/1 151/12/1
f 155/12/1 154/12/1 153/12/1
f 156/12/1 154/12/1 155/12/1
f 159/12/1 158/12/1 157/12/1
f 160/12/1 158/12/1 159/12/1
f 163/8/1 162/8/1 161/8/1
f 164/8/1 162/8/1 163/8/1
f 167/8/1 166/8/1 165/8/1
f 168/8/1 166/8/1 167/8/1
f 171/12/1 170/12/1 169/12/1
f 172/12/1 170/12/1 171/12/1
f 175/11/1 174/11/1 173/11/1
f 176/11/1 174/11/1 175/11/1
f 179/12/1 178/12/1 177/12/1
f 180/12/1 178/12/1 179/12/1
f 183/11/1 182/11/1 181/11/1
f 184/11/1 182/11/1 183/11/1
f 187/11/1 186/11/1 185/11/1
f 188/11/1 186/11/1 187/11/1
f 191/4/1 190/4/1 189/4/1
f 192/4/1 190/4/1 191/4/1
f 196/9/1 194/9/1 193/9/1
f 197/8/1 195/8/1 194/8/1
f 197/9/1 194/9/1 196/9/1
f 198/8/1 195/8/1 197/8/1
f 201/11/1 200/11/1 199/11/1
f 202/11/1 200/11/1 201/11/1
f 205/8/1 204/8/1 203/8/1
f 206/8/1 204/8/1 205/8/1
f 209/8/1 208/8/1 207/8/1
f 210/8/1 208/8/1 209/8/1
f 213/11/1 212/11/1 211/11/1
f 214/11/1 212/11/1 213/11/1
f 217/4/1 216/4/1 215/4/1
f 218/4/1 216/4/1 217/4/1
f 221/11/1 220/11/1 219/11/1
f 222/11/1 220/11/1 221/11/1
f 225/4/1 224/4/1 223/4/1
f 226/4/1 224/4/1 225/4/1
f 230/2/1 228/2/1 227/2/1
f 231/8/1 229/8/1 228/8/1
f 231/2/1 228/2/1 230/2/1
f 232/8/1 229/8/1 231/8/1
f 235/11/1 234/11/1 233/11/1
f 236/11/1 234/11/1 235/11/1
f 239/4/1 238/4/1 237/4/1
f 240/4/1 238/4/1 239/4/1
f 243/4/1 242/4/1 241/4/1
f 244/4/1 242/4/1 243/4/1
f 247/8/1 246/8/1 245/8/1
f 248/8/1 246/8/1 247/8/1
f 251/8/1 250/8/1 249/8/1
f 252/8/1 250/8/1 251/8/1
f 255/11/1 254/11/1 253/11/1
f 256/11/1 254/11/1 255/11/1
f 259/4/1 258/4/1 257/4/1
f 260/4/1 258/4/1 259/4/1
f 263/4/1 262/4/1 261/4/1
f 264/4/1 262/4/1 263/4/1
f 267/4/1 266/4/1 265/4/1
f 268/4/1 266/4/1 267/4/1
f 272/3/1 270/3/1 269/3/1
f 273/8/1 271/8/1 270/8/1
f 273/3/1 270/3/1 272/3/1
f 274/8/1 271/8/1 273/8/1
f 277/4/1 276/4/1 275/4/1
f 278/4/1 276/4/1 277/4/1
f 281/4/1 280/4/1 279/4/1
f 282/4/1 280/4/1 281/4/1
f 285/8/1 284/8/1 283/8/1
f 286/8/1 284/8/1 285/8/1
f 289/8/1 288/8/1 287/8/1
f 290/8/1 288/8/1 289/8/1
f 293/4/1 292/4/1 291/4/1
f 294/4/1 292/4/1 293/4/1
f 297/4/1 296/4/1 295/4/1
f 298/4/1 296/4/1 297/4/1
f 301/4/1 300/4/1 299/4/1
f 302/4/1 300/4/1 301/4/1
f 305/4/1 304/4/1 303/4/1
f 306/4/1 304/4/1 305/4/1
f 309/4/1 308/4/1 307/4/1
f 310/4/1 308/4/1 309/4/1
f 313/4/1 312/4/1 311/4/1
f 314/4/1 312/4/1 313/4/1
f 317/4/1 316/4/1 315/4/1
f 318/4/1 316/4/1 317/4/1
f 322/7/1 320/7/1 319/7/1
f 323/8/1 321/8/1 320/8/1
f 323/7/1 320/7/1 322/7/1
f 324/8/1 321/8/1 323/8/1
f 328/4/1 326/4/1 325/4/1
f 329/4/1 328/4/1 327/4/1
f 330/4/1 326/4/1 328/4/1
f 330/4/1 328/4/1 329/4/1
f 333/8/1 332/8/1 331/8/1
f 334/8/1 332/8/1 333/8/1
f 337/8/1 336/8/1 335/8/1
f 338/8/1 336/8/1 337/8/1
f 341/4/1 340/4/1 339/4/1
f 342/4/1 340/4/1 341/4/1
f 345/4/1 344/4/1 343/4/1
f 346/4/1 344/4/1 345/4/1
f 349/4/1 348/4/1 347/4/1
f 350/4/1 348/4/1 349/4/1
f 353/4/1 352/4/1 351/4/1
f 354/4/1 352/4/1 353/4/1
f 357/4/1 356/4/1 355/4/1
f 358/4/1 356/4/1 357/4/1
f 359/4/1 357/4/1 355/4/1
f 360/4/1 357/4/1 359/4/1
f 363/4/1 362/4/1 361/4/1
f 364/4/1 362/4/1 363/4/1
f 367/4/1 366/4/1 365/4/1
f 368/4/1 366/4/1 367/4/1
f 371/12/1 370/12/1 369/12/1
f 372/12/1 370/12/1 371/12/1
f 373/12/1 371/12/1 369/12/1
f 374/12/1 371/12/1 373/12/1
f 375/12/2 376/12/2 377/12/2
f 377/12/2 376/12/2 378/12/2
f 379/12/2 380/12/2 381/12/2
f 381/12/2 380/12/2 382/12/2
f 383/12/2 384/12/2 385/12/2
f 385/12/2 384/12/2 386/12/2
f 387/12/2 388/12/2 389/12/2
f 389/12/2 388/12/2 390/12/2
f 391/12/2 392/12/2 393/12/2
f 393/12/2 392/12/2 394/12/2
f 395/12/2 396/12/2 397/12/2
f 397/12/2 396/12/2 398/12/2
f 399/12/2 400/12/2 401/12/2
f 401/12/2 400/12/2 402/12/2
f 403/12/2 404/12/2 405/12/2
f 405/12/2 404/12/2 406/12/2
f 407/12/2 408/12/2 409/12/2
f 409/12/2 408/12/2 410/12/2
f 411/12/2 412/12/2 413/12/2
f 413/12/2 412/12/2 414/12/2
f 415/8/2 416/8/2 417/8/2
f 417/8/2 416/8/2 418/8/2
f 419/8/2 420/8/2 421/8/2
f 421/8/2 420/8/2 422/8/2
f 423/10/2 424/10/2 426/10/2
f 424/8/2 425/8/2 427/8/2
f 426/10/2 424/10/2 427/10/2
f 427/8/2 425/8/2 428/8/2
f 429/12/2 430/12/2 431/12/2
f 431/12/2 430/12/2 432/12/2
f 433/12/2 434/12/2 435/12/2
f 435/12/2 434/12/2 436/12/2
f 437/8/2 438/8/2 439/8/2
f 439/8/2 438/8/2 440/8/2
f 441/8/2 442/8/2 443/8/2
f 443/8/2 442/8/2 444/8/2
f 445/12/2 446/12/2 447/12/2
f 447/12/2 446/12/2 448/12/2
f 449/12/2 450/12/2 451/12/2
f 451/12/2 450/12/2 452/12/2
f 453/12/2 454/12/2 455/12/2
f 455/12/2 454/12/2 456/12/2
f 457/12/2 458/12/2 459/12/2
f 459/12/2 458/12/2 460/12/2
f 461/6/2 462/6/2 464/6/2
f 462/8/2 463/8/2 465/8/2
f 464/6/2 462/6/2 465/6/2
f 465/8/2 463/8/2 466/8/2
f 467/12/2 468/12/2 469/12/2
f 469/12/2 468/12/2 470/12/2
f 471/12/2 472/12/2 473/12/2
f 473/12/2 472/12/2 474/12/2
f 475/12/2 476/12/2 477/12/2
f 477/12/2 476/12/2 478/12/2
f 479/12/2 480/12/2 481/12/2
f 481/12/2 480/12/2 482/12/2
f 483/12/2 484/12/2 485/12/2
f 485/12/2 484/12/2 486/12/2
f 487/12/2 488/12/2 489/12/2
f 489/12/2 488/12/2 490/12/2
f 491/8/2 492/8/2 493/8/2
f 493/8/2 492/8/2 494/8/2
f 495/8/2 496/8/2 497/8/2
f 497/8/2 496/8/2 498/8/2
f 499/12/2 500/12/2 501/12/2
f 501/12/2 500/12/2 502/12/2
f 503/1/2 504/1/2 506/1/2
f 504/8/2 505/8/2 507/8/2
f 506/1/2 504/1/2 507/1/2
f 507/8/2 505/8/2 508/8/2
f 509/12/2 510/12/2 511/12/2
f 511/12/2 510/12/2 512/12/2
f 513/12/2 514/12/2 515/12/2
f 515/12/2 514/12/2 516/12/2
f 517/12/2 518/12/2 519/12/2
f 519/12/2 518/12/2 520/12/2
f 521/12/2 522/12/2 523/12/2
f 523/12/2 522/12/2 524/12/2
f 525/12/2 526/12/2 527/12/2
f 527/12/2 526/12/2 528/12/2
f 529/8/2 530/8/2 531/8/2
f 531/8/2 530/8/2 532/8/2
f 533/8/2 534/8/2 535/8/2
f 535/8/2 534/8/2 536/8/2
f 537/4/2 538/4/2 539/4/2
f 539/4/2 538/4/2 540/4/2
f 541/8/2 542/8/2 543/8/2
f 543/8/2 542/8/2 544/8/2
f 545/8/2 546/8/2 547/8/2
f 547/8/2 546/8/2 548/8/2
f 549/4/2 550/4/2 551/4/2
f 551/4/2 550/4/2 552/4/2
f 553/5/2 554/5/2 556/5/2
f 554/8/2 555/8/2 557/8/2
f 556/5/2 554/5/2 557/5/2
f 557/8/2 555/8/2 558/8/2
f 559/4/2 560/4/2 561/4/2
f 561/4/2 560/4/2 562/4/2
f 563/4/2 564/4/2 565/4/2
f 565/4/2 564/4/2 566/4/2
f 567/8/2 568/8/2 569/8/2
f 569/8/2 568/8/2 570/8/2
f 571/8/2 572/8/2 573/8/2
f 573/8/2 572/8/2 574/8/2
f 575/4/2 576/4/2 577/4/2
f 577/4/2 576/4/2 578/4/2
f 579/9/2 580/9/2 582/9/2
f 580/8/2 581/8/2 583/8/2
f 582/9/2 580/9/2 583/9/2
f 583/8/2 581/8/2 584/8/2
f 585/4/2 586/4/2 587/4/2
f 587/4/2 586/4/2 588/4/2
f 589/4/2 590/4/2 591/4/2
f 591/4/2 590/4/2 592/4/2
f 593/4/2 594/4/2 595/4/2
f 595/4/2 594/4/2 596/4/2
f 597/4/2 598/4/2 599/4/2
f 599/4/2 598/4/2 600/4/2
f 601/8/2 602/8/2 603/8/2
f 603/8/2 602/8/2 604/8/2
f 605/8/2 606/8/2 607/8/2
f 607/8/2 606/8/2 608/8/2
f 609/4/2 610/4/2 611/4/2
f 611/4/2 610/4/2 612/4/2
f 613/2/2 614/2/2 616/2/2
f 614/8/2 615/8/2 617/8/2
f 616/2/2 614/2/2 617/2/2
f 617/8/2 615/8/2 618/8/2
f 619/4/2 620/4/2 621/4/2
f 621/4/2 620/4/2 622/4/2
f 623/4/2 624/4/2 625/4/2
f 625/4/2 624/4/2 626/4/2
f 627/4/2 628/4/2 629/4/2
f 629/4/2 628/4/2 630/4/2
f 631/4/2 632/4/2 633/4/2
f 633/4/2 632/4/2 634/4/2
f 635/8/2 636/8/2 637/8/2
f 637/8/2 636/8/2 638/8/2
f 639/8/2 640/8/2 641/8/2
f 641/8/2 640/8/2 642/8/2
f 643/4/2 644/4/2 645/4/2
f 645/4/2 644/4/2 646/4/2
f 647/4/2 648/4/2 649/4/2
f 649/4/2 648/4/2 650/4/2
f 651/3/2 652/3/2 654/3/2
f 652/8/2 653/8/2 655/8/2
f 654/3/2 652/3/2 655/3/2
f 655/8/2 653/8/2 656/8/2
f 657/4/2 658/4/2 659/4/2
f 659/4/2 658/4/2 660/4/2
f 661/11/2 662/11/2 663/11/2
f 663/11/2 662/11/2 664/11/2
f 665/4/2 666/4/2 667/4/2
f 667/4/2 666/4/2 668/4/2
f 669/4/2 670/4/2 671/4/2
f 671/4/2 670/4/2 672/4/2
f 673/4/2 674/4/2 675/4/2
f 675/4/2 674/4/2 676/4/2
f 673/4/2 675/4/2 677/4/2
f 677/4/2 675/4/2 678/4/2
f 679/4/2 680/4/2 681/4/2
f 681/4/2 680/4/2 682/4/2
f 683/11/2 684/11/2 685/11/2
f 685/11/2 684/11/2 686/11/2
f 687/4/2 688/4/2 689/4/2
f 689/4/2 688/4/2 690/4/2
f 691/4/2 692/4/2 693/4/2
f 693/4/2 692/4/2 694/4/2
f 695/8/2 696/8/2 697/8/2
f 697/8/2 696/8/2 698/8/2
f 699/8/2 700/8/2 701/8/2
f 701/8/2 700/8/2 702/8/2
f 703/4/2 704/4/2 705/4/2
f 705/4/2 704/4/2 706/4/2
f 707/7/2 708/7/2 710/7/2
f 708/8/2 709/8/2 711/8/2
f 710/7/2 708/7/2 711/7/2
f 711/8/2 709/8/2 712/8/2
f 713/11/2 714/11/2 715/11/2
f 715/11/2 714/11/2 716/11/2
f 717/4/2 718/4/2 720/4/2
f 718/11/2 719/11/2 720/11/2
f 720/11/2 719/11/2 721/11/2
f 717/4/2 720/4/2 722/4/2
f 722/4/2 720/4/2 723/4/2
f 723/4/2 720/4/2 724/4/2
f 724/4/2 720/4/2 725/4/2
f 726/4/2 727/4/2 728/4/2
f 728/4/2 727/4/2 729/4/2
f 730/4/2 731/4/2 732/4/2
f 732/4/2 731/4/2 733/4/2
f 734/12/2 735/12/2 736/12/2
f 736/12/2 735/12/2 737/12/2
f 740/12/3 739/12/3 738/12/3
f 741/12/3 739/12/3 740/12/3
f 742/12/3 740/12/3 738/12/3
f 744/12/3 742/12/3 738/12/3
f 744/12/3 743/12/3 742/12/3
f 745/12/3 743/12/3 744/12/3
f 748/4/3 747/4/3 746/4/3
f 749/4/3 747/4/3 748/4/3
f 752/4/3 751/4/3 750/4/3
f 753/4/3 751/4/3 752/4/3
f 758/4/3 755/4/3 754/4/3
f 759/4/3 755/4/3 758/4/3
f 760/4/3 757/4/3 756/4/3
f 761/4/3 757/4/3 760/4/3
f 766/10/3 763/10/3 762/10/3
f 767/10/3 763/10/3 766/10/3
f 768/6/3 765/6/3 764/6/3
f 769/6/3 765/6/3 768/6/3
f 772/1/3 771/1/3 770/1/3
f 773/1/3 771/1/3 772/1/3
f 780/4/3 777/4/3 776/4/3
f 781/4/3 777/4/3 780/4/3
f 783/4/3 780/4/3 776/4/3
f 784/4/3 780/4/3 783/4/3
f 785/4/3 780/4/3 784/4/3
f 786/5/3 775/5/3 774/5/3
f 787/5/3 775/5/3 786/5/3
f 788/4/3 783/4/3 782/4/3
f 788/4/3 784/4/3 783/4/3
f 789/4/3 784/4/3 788/4/3
f 790/4/3 784/4/3 789/4/3
f 791/4/3 784/4/3 790/4/3
f 800/4/3 793/4/3 792/4/3
f 801/4/3 793/4/3 800/4/3
f 802/9/3 779/9/3 778/9/3
f 803/9/3 779/9/3 802/9/3
f 804/4/3 797/4/3 796/4/3
f 805/4/3 797/4/3 804/4/3
f 806/4/3 799/4/3 798/4/3
f 807/4/3 799/4/3 806/4/3
f 817/4/3 809/4/3 808/4/3
f 818/4/3 809/4/3 817/4/3
f 821/4/3 813/4/3 812/4/3
f 822/4/3 813/4/3 821/4/3
f 823/4/3 820/4/3 819/4/3
f 824/4/3 820/4/3 823/4/3
f 828/2/3 795/2/3 794/2/3
f 829/2/3 795/2/3 828/2/3
f 830/4/3 817/4/3 816/4/3
f 831/4/3 817/4/3 830/4/3
f 832/4/3 811/4/3 810/4/3
f 833/4/3 811/4/3 832/4/3
f 835/4/3 825/4/3 824/4/3
f 836/4/3 827/4/3 826/4/3
f 837/4/3 827/4/3 836/4/3
f 840/4/3 835/4/3 834/4/3
f 841/4/3 825/4/3 835/4/3
f 841/4/3 835/4/3 840/4/3
f 842/4/3 830/4/3 816/4/3
f 843/4/3 830/4/3 842/4/3
f 844/4/3 839/4/3 838/4/3
f 845/4/3 839/4/3 844/4/3
f 852/3/3 815/3/3 814/3/3
f 853/3/3 815/3/3 852/3/3
f 856/4/3 847/4/3 846/4/3
f 857/4/3 847/4/3 856/4/3
f 858/4/3 855/4/3 854/4/3
f 859/4/3 855/4/3 858/4/3
f 865/4/3 849/4/3 848/4/3
f 866/4/3 849/4/3 865/4/3
f 868/4/3 861/4/3 860/4/3
f 869/4/3 865/4/3 864/4/3
f 870/4/3 865/4/3 869/4/3
f 871/4/3 868/4/3 867/4/3
f 872/4/3 861/4/3 868/4/3
f 872/4/3 868/4/3 871/4/3
f 873/4/3 861/4/3 872/4/3
f 874/4/3 863/4/3 862/4/3
f 875/4/3 865/4/3 870/4/3
f 876/4/3 865/4/3 875/4/3
f 877/4/3 873/4/3 872/4/3
f 877/4/3 874/4/3 873/4/3
f 878/4/3 874/4/3 877/4/3
f 879/4/3 863/4/3 874/4/3
f 879/4/3 874/4/3 878/4/3
f 880/4/3 863/4/3 879/4/3
f 882/7/3 851/7/3 850/7/3
f 883/7/3 851/7/3 882/7/3
f 884/4/3 879/4/3 878/4/3
f 885/4/3 879/4/3 884/4/3
f 886/4/3 881/4/3 880/4/3
f 887/4/3 881/4/3 886/4/3
f 896/8/3 889/8/3 888/8/3
f 897/8/3 889/8/3 896/8/3
f 898/8/3 891/8/3 890/8/3
f 899/8/3 891/8/3 898/8/3
f 900/8/3 893/8/3 892/8/3
f 901/8/3 893/8/3 900/8/3
f 902/8/3 895/8/3 894/8/3
f 903/8/3 895/8/3 902/8/3
f 908/8/3 905/8/3 904/8/3
f 909/8/3 905/8/3 908/8/3
f 910/8/3 907/8/3 906/8/3
f 911/8/3 907/8/3 910/8/3
f 917/8/3 913/8/3 912/8/3
f 918/8/3 915/8/3 914/8/3
f 923/11/3 921/11/3 920/11/3
f 925/11/3 923/11/3 922/11/3
f 926/11/3 923/11/3 925/11/3
f 927/11/3 921/11/3 923/11/3
f 927/11/3 923/11/3 926/11/3
f 928/8/3 917/8/3 916/8/3
f 929/8/3 913/8/3 917/8/3
f 929/8/3 917/8/3 928/8/3
f 930/8/3 919/8/3 918/8/3
f 930/8/3 918/8/3 914/8/3
f 931/8/3 919/8/3 930/8/3
f 933/11/3 926/11/3 925/11/3
f 933/11/3 925/11/3 924/11/3
f 935/11/3 921/11/3 927/11/3
f 936/8/3 913/8/3 929/8/3
f 937/8/3 913/8/3 936/8/3
f 938/8/3 930/8/3 914/8/3
f 939/8/3 930/8/3 938/8/3
f 945/11/3 933/11/3 932/11/3
f 946/11/3 926/11/3 933/11/3
f 946/11/3 933/11/3 945/11/3
f 947/11/3 926/11/3 946/11/3
f 949/11/3 935/11/3 934/11/3
f 951/11/3 945/11/3 944/11/3
f 951/11/3 946/11/3 945/11/3
f 952/11/3 946/11/3 951/11/3
f 954/11/3 951/11/3 950/11/3
f 954/11/3 953/11/3 952/11/3
f 954/11/3 952/11/3 951/11/3
f 955/11/3 949/11/3 948/11/3
f 956/11/3 935/11/3 949/11/3
f 956/11/3 949/11/3 955/11/3
f 957/11/3 921/11/3 935/11/3
f 957/11/3 935/11/3 956/11/3
f 958/8/3 941/8/3 940/8/3
f 959/8/3 941/8/3 958/8/3
f 960/8/3 943/8/3 942/8/3
f 961/8/3 943/8/3 960/8/3
f 963/11/3 954/11/3 950/11/3
f 963/11/3 956/11/3 955/11/3
f 963/11/3 955/11/3 954/11/3
f 964/11/3 956/11/3 963/11/3
f 965/11/3 956/11/3 964/11/3
f 966/11/3 956/11/3 965/11/3
f 967/11/3 956/11/3 966/11/3
f 968/11/3 956/11/3 967/11/3
f 974/11/3 963/11/3 962/11/3
f 974/11/3 964/11/3 963/11/3
f 975/11/3 966/11/3 965/11/3
f 976/11/3 966/11/3 975/11/3
f 977/11/3 969/11/3 968/11/3
f 977/11/3 968/11/3 967/11/3
f 979/11/3 976/11/3 975/11/3
f 979/11/3 977/11/3 976/11/3
f 979/11/3 975/11/3 974/11/3
f 979/11/3 974/11/3 962/11/3
f 980/11/3 977/11/3 979/11/3
f 981/11/3 977/11/3 980/11/3
f 982/11/3 977/11/3 981/11/3
f 983/11/3 977/11/3 982/11/3
f 984/11/3 969/11/3 977/11/3
f 984/11/3 977/11/3 983/11/3
f 985/11/3 969/11/3 984/11/3
f 986/11/3 979/11/3 978/11/3
f 986/11/3 980/11/3 979/11/3
f 987/11/3 980/11/3 986/11/3
f 988/11/3 982/11/3 981/11/3
f 989/11/3 984/11/3 983/11/3
f 990/11/3 984/11/3 989/11/3
f 991/11/3 984/11/3 990/11/3
f 992/11/3 969/11/3 985/11/3
f 993/8/3 971/8/3 970/8/3
f 994/8/3 971/8/3 993/8/3
f 995/8/3 973/8/3 972/8/3
f 996/8/3 973/8/3 995/8/3
f 1001/11/3 989/11/3 983/11/3
f 1002/11/3 991/11/3 990/11/3
f 1002/11/3 992/11/3 991/11/3
f 1003/11/3 992/11/3 1002/11/3
f 1004/11/3 969/11/3 992/11/3
f 1004/11/3 992/11/3 1003/11/3
f 1005/11/3 969/11/3 1004/11/3
f 1007/11/3 988/11/3 987/11/3
f 1008/11/3 982/11/3 988/11/3
f 1008/11/3 988/11/3 1007/11/3
f 1009/11/3 1001/11/3 983/11/3
f 1009/11/3 1002/11/3 1001/11/3
f 1010/11/3 1002/11/3 1009/11/3
f 1011/11/3 1002/11/3 1010/11/3
f 1012/11/3 1008/11/3 1007/11/3
f 1012/11/3 1007/11/3 1006/11/3
f 1012/11/3 1010/11/3 1009/11/3
f 1012/11/3 1009/11/3 1008/11/3
f 1013/11/3 1010/11/3 1012/11/3
f 1014/11/3 1010/11/3 1013/11/3
f 1015/11/3 1004/11/3 1003/11/3
f 1016/11/3 1004/11/3 1015/11/3
f 1018/8/3 998/8/3 997/8/3
f 1019/8/3 998/8/3 1018/8/3
f 1020/8/3 1000/8/3 999/8/3
f 1021/8/3 1000/8/3 1020/8/3
f 1022/11/3 986/11/3 978/11/3
f 1023/11/3 1012/11/3 1006/11/3
f 1024/11/3 1012/11/3 1023/11/3
f 1025/11/3 1014/11/3 1013/11/3
f 1025/11/3 1017/11/3 1016/11/3
f 1025/11/3 1016/11/3 1015/11/3
f 1025/11/3 1015/11/3 1014/11/3
f 1026/11/3 1017/11/3 1025/11/3
f 1027/11/3 1017/11/3 1026/11/3
f 1028/11/3 1017/11/3 1027/11/3
f 1029/11/3 1017/11/3 1028/11/3
f 1030/11/3 1024/11/3 1023/11/3
f 1030/11/3 1023/11/3 1022/11/3
f 1030/11/3 1026/11/3 1025/11/3
f 1030/11/3 1025/11/3 1024/11/3
f 1031/11/3 1026/11/3 1030/11/3
f 1032/11/3 1026/11/3 1031/11/3
f 1033/11/3 1028/11/3 1027/11/3
f 1038/11/3 1022/11/3 978/11/3
f 1038/11/3 1030/11/3 1022/11/3
f 1039/11/3 1030/11/3 1038/11/3
f 1040/11/3 1030/11/3 1039/11/3
f 1042/11/3 1032/11/3 1031/11/3
f 1042/11/3 1033/11/3 1032/11/3
f 1043/11/3 1033/11/3 1042/11/3
f 1044/11/3 1033/11/3 1043/11/3
f 1045/11/3 1028/11/3 1033/11/3
f 1045/11/3 1033/11/3 1044/11/3
f 1046/11/3 1028/11/3 1045/11/3
f 1047/11/3 1028/11/3 1046/11/3
f 1049/11/3 1041/11/3 1040/11/3
f 1049/11/3 1040/11/3 1039/11/3
f 1051/11/3 1046/11/3 1045/11/3
f 1053/11/3 1050/11/3 1049/11/3
f 1053/11/3 1049/11/3 1039/11/3
f 1054/11/3 1050/11/3 1053/11/3
f 1055/11/3 1050/11/3 1054/11/3
f 1057/11/3 1044/11/3 1043/11/3
f 1058/11/3 1044/11/3 1057/11/3
f 1059/11/3 1052/11/3 1051/11/3
f 1060/11/3 1048/11/3 1047/11/3
f 1061/8/3 1035/8/3 1034/8/3
f 1062/8/3 1035/8/3 1061/8/3
f 1063/8/3 1037/8/3 1036/8/3
f 1064/8/3 1037/8/3 1063/8/3
f 1065/11/3 1056/11/3 1055/11/3
f 1065/11/3 1055/11/3 1054/11/3
f 1066/11/3 1056/11/3 1065/11/3
f 1068/11/3 1059/11/3 1051/11/3
f 1068/11/3 1060/11/3 1059/11/3
f 1068/11/3 1051/11/3 1045/11/3
f 1069/11/3 1060/11/3 1068/11/3
f 1070/11/3 1048/11/3 1060/11/3
f 1070/11/3 1060/11/3 1069/11/3
f 1071/11/3 1048/11/3 1070/11/3
f 1072/11/3 1065/11/3 1054/11/3
f 1073/11/3 1065/11/3 1072/11/3
f 1075/11/3 1068/11/3 1067/11/3
f 1076/11/3 1068/11/3 1075/11/3
f 1077/11/3 1070/11/3 1069/11/3
f 1078/11/3 1070/11/3 1077/11/3
f 1080/11/3 1076/11/3 1075/11/3
f 1080/11/3 1079/11/3 1078/11/3
f 1080/11/3 1078/11/3 1077/11/3
f 1080/11/3 1077/11/3 1076/11/3
f 1080/11/3 1075/11/3 1074/11/3
f 1081/11/3 1079/11/3 1080/11/3
f 1084/12/3 1083/12/3 1082/12/3
f 1085/12/3 1083/12/3 1084/12/3
f 1086/12/3 1084/12/3 1082/12/3
f 1087/12/3 1084/12/3 1086/12/3
f 1088/12/3 1083/12/3 1085/12/3
f 1089/12/3 1083/12/3 1088/12/3
f 1090/12/3 1083/12/3 1089/12/3
f 1091/12/3 1083/12/3 1090/12/3
f 1092/12/3 1083/12/3 1091/12/3
f 1093/12/3 1083/12/3 1092/12/3
f 1094/12/3 1083/12/3 1093/12/3
f 1095/12/3 1083/12/3 1094/12/3
f 1096/12/3 1086/12/3 1082/12/3
f 1097/12/3 1086/12/3 1096/12/3
f 1098/12/3 1090/12/3 1089/12/3
f 1099/12/3 1090/12/3 1098/12/3
f 1100/12/3 1092/12/3 1091/12/3
f 1101/12/3 1092/12/3 1100/12/3
f 1102/12/3 1092/12/3 1101/12/3
f 1103/12/3 1092/12/3 1102/12/3
f 1104/12/3 1094/12/3 1093/12/3
f 1105/12/3 1094/12/3 1104/12/3
f 1106/12/3 1094/12/3 1105/12/3
f 1107/12/3 1094/12/3 1106/12/3
f 1108/12/3 1083/12/3 1095/12/3
f 1109/12/3 1083/12/3 1108/12/3
f 1110/12/3 1096/12/3 1082/12/3
f 1111/12/3 1096/12/3 1110/12/3
f 1112/12/3 1086/12/3 1097/12/3
f 1113/12/3 1086/12/3 1112/12/3
f 1114/12/3 1098/12/3 1089/12/3
f 1117/12/3 1102/12/3 1101/12/3
f 1118/12/3 1102/12/3 1117/12/3
f 1121/12/3 1106/12/3 1105/12/3
f 1122/12/3 1106/12/3 1121/12/3
f 1125/12/3 1083/12/3 1109/12/3
f 1126/12/3 1086/12/3 1113/12/3
f 1129/12/3 1115/12/3 1114/12/3
f 1129/12/3 1114/12/3 1089/12/3
f 1130/12/3 1115/12/3 1129/12/3
f 1131/12/3 1119/12/3 1118/12/3
f 1131/12/3 1117/12/3 1116/12/3
f 1131/12/3 1118/12/3 1117/12/3
f 1132/12/3 1119/12/3 1131/12/3
f 1133/12/3 1123/12/3 1122/12/3
f 1133/12/3 1121/12/3 1120/12/3
f 1133/12/3 1122/12/3 1121/12/3
f 1134/12/3 1123/12/3 1133/12/3
f 1135/12/3 1125/12/3 1124/12/3
f 1136/12/3 1127/12/3 1126/12/3
f 1137/12/3 1132/12/3 1131/12/3
f 1137/12/3 1130/12/3 1129/12/3
f 1137/12/3 1134/12/3 1133/12/3
f 1137/12/3 1135/12/3 1134/12/3
f 1137/12/3 1133/12/3 1132/12/3
f 1137/12/3 1129/12/3 1128/12/3
f 1137/12/3 1131/12/3 1130/12/3
f 1138/12/3 1135/12/3 1137/12/3
f 1139/12/3 1135/12/3 1138/12/3
f 1140/12/3 1135/12/3 1139/12/3
f 1141/12/3 1135/12/3 1140/12/3
f 1142/12/3 1110/12/3 1082/12/3
f 1145/12/3 1136/12/3 1126/12/3
f 1145/12/3 1126/12/3 1113/12/3
f 1145/12/3 1137/12/3 1136/12/3
f 1145/12/3 1138/12/3 1137/12/3
f 1146/12/3 1138/12/3 1145/12/3
f 1147/12/3 1138/12/3 1146/12/3
f 1148/12/3 1140/12/3 1139/12/3
f 1149/12/3 1140/12/3 1148/12/3
f 1150/12/3 1140/12/3 1149/12/3
f 1151/12/3 1140/12/3 1150/12/3
f 1152/12/3 1135/12/3 1141/12/3
f 1153/12/3 1135/12/3 1152/12/3
f 1154/12/3 1143/12/3 1142/12/3
f 1155/12/3 1145/12/3 1144/12/3
f 1155/12/3 1146/12/3 1145/12/3
f 1156/12/3 1146/12/3 1155/12/3
f 1157/12/3 1146/12/3 1156/12/3
f 1158/12/3 1146/12/3 1157/12/3
f 1161/12/3 1150/12/3 1149/12/3
f 1162/12/3 1150/12/3 1161/12/3
f 1165/12/3 1135/12/3 1153/12/3
f 1166/12/3 1135/12/3 1165/12/3
f 1167/12/3 1135/12/3 1166/12/3
f 1168/12/3 1155/12/3 1154/12/3
f 1168/12/3 1156/12/3 1155/12/3
f 1169/12/3 1156/12/3 1168/12/3
f 1170/12/3 1159/12/3 1158/12/3
f 1170/12/3 1158/12/3 1157/12/3
f 1171/12/3 1159/12/3 1170/12/3
f 1172/12/3 1159/12/3 1171/12/3
f 1173/12/3 1163/12/3 1162/12/3
f 1173/12/3 1161/12/3 1160/12/3
f 1173/12/3 1162/12/3 1161/12/3
f 1174/12/3 1163/12/3 1173/12/3
f 1175/12/3 1166/12/3 1165/12/3
f 1175/12/3 1165/12/3 1164/12/3
f 1176/12/3 1166/12/3 1175/12/3
f 1177/12/3 1166/12/3 1176/12/3
f 1178/12/3 1135/12/3 1167/12/3
f 1179/12/3 1135/12/3 1178/12/3
f 1180/12/3 1172/12/3 1171/12/3
f 1180/12/3 1176/12/3 1175/12/3
f 1180/12/3 1175/12/3 1174/12/3
f 1180/12/3 1174/12/3 1173/12/3
f 1180/12/3 1173/12/3 1172/12/3
f 1181/12/3 1176/12/3 1180/12/3
f 1182/12/3 1176/12/3 1181/12/3
f 1185/12/3 1135/12/3 1179/12/3
f 1186/12/3 1180/12/3 1171/12/3
f 1187/12/3 1180/12/3 1186/12/3
f 1188/12/3 1183/12/3 1182/12/3
f 1188/12/3 1182/12/3 1181/12/3
f 1189/12/3 1183/12/3 1188/12/3
f 1190/12/3 1183/12/3 1189/12/3
f 1191/12/3 1185/12/3 1184/12/3
f 1192/12/3 1168/12/3 1154/12/3
f 1195/12/3 1186/12/3 1171/12/3
f 1196/12/3 1186/12/3 1195/12/3
f 1197/12/3 1186/12/3 1196/12/3
f 1198/12/3 1186/12/3 1197/12/3
f 1201/12/3 1191/12/3 1190/12/3
f 1201/12/3 1190/12/3 1189/12/3
f 1202/12/3 1193/12/3 1192/12/3
f 1203/12/3 1195/12/3 1194/12/3
f 1203/12/3 1196/12/3 1195/12/3
f 1204/12/3 1199/12/3 1198/12/3
f 1204/12/3 1198/12/3 1197/12/3
f 1205/12/3 1201/12/3 1200/12/3
f 1206/12/3 1191/12/3 1201/12/3
f 1206/12/3 1201/12/3 1205/12/3
f 1207/12/3 1191/12/3 1206/12/3
f 1208/12/3 1203/12/3 1202/12/3
f 1208/12/3 1192/12/3 1154/12/3
f 1208/12/3 1202/12/3 1192/12/3
f 1209/12/3 1203/12/3 1208/12/3
f 1210/12/3 1196/12/3 1203/12/3
f 1210/12/3 1203/12/3 1209/12/3
f 1211/12/3 1196/12/3 1210/12/3
f 1212/12/3 1204/12/3 1197/12/3
f 1212/12/3 1206/12/3 1205/12/3
f 1212/12/3 1205/12/3 1204/12/3
f 1213/12/3 1206/12/3 1212/12/3
f 1214/12/3 1206/12/3 1213/12/3
f 1215/12/3 1206/12/3 1214/12/3
f 1216/12/3 1191/12/3 1207/12/3
f 1217/12/3 1191/12/3 1216/12/3
f 1218/12/3 1208/12/3 1154/12/3
f 1219/12/3 1208/12/3 1218/12/3
f 1220/12/3 1210/12/3 1209/12/3
f 1221/12/3 1210/12/3 1220/12/3
f 1222/12/3 1210/12/3 1221/12/3
f 1225/12/3 1214/12/3 1213/12/3
f 1226/12/3 1214/12/3 1225/12/3
f 1229/12/3 1191/12/3 1217/12/3
f 1230/12/3 1218/12/3 1154/12/3
f 1231/12/3 1218/12/3 1230/12/3
f 1232/12/3 1223/12/3 1222/12/3
f 1232/12/3 1222/12/3 1221/12/3
f 1233/12/3 1223/12/3 1232/12/3
f 1234/12/3 1227/12/3 1226/12/3
f 1234/12/3 1225/12/3 1224/12/3
f 1234/12/3 1226/12/3 1225/12/3
f 1235/12/3 1229/12/3 1228/12/3
f 1236/12/3 1125/12/3 1135/12/3
f 1236/12/3 1185/12/3 1191/12/3
f 1236/12/3 1229/12/3 1235/12/3
f 1236/12/3 1135/12/3 1185/12/3
f 1236/12/3 1191/12/3 1229/12/3
f 1237/12/3 1083/12/3 1125/12/3
f 1237/12/3 1125/12/3 1236/12/3
f 1238/12/3 1223/12/3 1233/12/3
f 1239/12/3 1235/12/3 1234/12/3
f 1239/12/3 1236/12/3 1235/12/3
f 1239/12/3 1234/12/3 1224/12/3
f 1240/12/3 1236/12/3 1239/12/3
f 1241/12/3 1236/12/3 1240/12/3
f 1242/12/3 1239/12/3 1238/12/3
f 1242/12/3 1240/12/3 1239/12/3
f 1243/12/3 1240/12/3 1242/12/3
f 1244/12/3 1230/12/3 1154/12/3
f 1247/12/3 1238/12/3 1233/12/3
f 1247/12/3 1242/12/3 1238/12/3
f 1248/12/3 1242/12/3 1247/12/3
f 1249/12/3 1242/12/3 1248/12/3
f 1250/12/3 1242/12/3 1249/12/3
f 1251/12/3 1242/12/3 1250/12/3
f 1252/12/3 1245/12/3 1244/12/3
f 1255/12/3 1247/12/3 1246/12/3
f 1255/12/3 1248/12/3 1247/12/3
f 1256/12/3 1248/12/3 1255/12/3
f 1257/12/3 1248/12/3 1256/12/3
f 1258/12/3 1250/12/3 1249/12/3
f 1259/12/3 1250/12/3 1258/12/3
f 1260/12/3 1250/12/3 1259/12/3
f 1261/12/3 1250/12/3 1260/12/3
f 1262/12/3 1253/12/3 1252/12/3
f 1263/12/3 1255/12/3 1254/12/3
f 1263/12/3 1256/12/3 1255/12/3
f 1264/12/3 1260/12/3 1259/12/3
f 1265/12/3 1260/12/3 1264/12/3
f 1266/12/3 1263/12/3 1262/12/3
f 1267/12/3 1256/12/3 1263/12/3
f 1267/12/3 1263/12/3 1266/12/3
f 1268/12/3 1256/12/3 1267/12/3
f 1271/12/3 1264/12/3 1259/12/3
f 1272/12/3 1264/12/3 1271/12/3
f 1273/12/3 1264/12/3 1272/12/3
f 1274/12/3 1266/12/3 1262/12/3
f 1275/12/3 1266/12/3 1274/12/3
f 1276/12/3 1269/12/3 1268/12/3
f 1276/12/3 1268/12/3 1267/12/3
f 1277/12/3 1269/12/3 1276/12/3
f 1278/12/3 1269/12/3 1277/12/3
f 1279/12/3 1272/12/3 1271/12/3
f 1279/12/3 1271/12/3 1270/12/3
f 1280/12/3 1279/12/3 1278/12/3
f 1280/12/3 1272/12/3 1279/12/3
f 1280/12/3 1278/12/3 1277/12/3
f 1281/12/3 1272/12/3 1280/12/3
f 1282/12/3 1280/12/3 1277/12/3
f 1283/12/3 1280/12/3 1282/12/3
f 1284/12/3 1274/12/3 1262/12/3
f 1287/12/3 1282/12/3 1277/12/3
f 1288/12/3 1282/12/3 1287/12/3
f 1289/12/3 1282/12/3 1288/12/3
f 1290/12/3 1280/12/3 1283/12/3
f 1291/12/3 1280/12/3 1290/12/3
f 1292/12/3 1285/12/3 1284/12/3
f 1293/12/3 1287/12/3 1286/12/3
f 1293/12/3 1288/12/3 1287/12/3
f 1294/12/3 1288/12/3 1293/12/3
f 1294/12/3 1293/12/3 1292/12/3
f 1297/12/3 1280/12/3 1291/12/3
f 1298/12/3 1295/12/3 1294/12/3
f 1298/12/3 1294/12/3 1292/12/3
f 1299/12/3 1295/12/3 1298/12/3
f 1300/12/3 1295/12/3 1299/12/3
f 1301/12/3 1297/12/3 1296/12/3
f 1302/12/3 1292/12/3 1284/12/3
f 1302/12/3 1298/12/3 1292/12/3
f 1303/12/3 1298/12/3 1302/12/3
f 1304/12/3 1300/12/3 1299/12/3
f 1304/12/3 1301/12/3 1300/12/3
f 1305/12/3 1301/12/3 1304/12/3
f 1306/12/3 1280/12/3 1297/12/3
f 1306/12/3 1301/12/3 1305/12/3
f 1306/12/3 1297/12/3 1301/12/3
f 1308/12/3 1307/12/3 1306/12/3
f 1308/12/3 1306/12/3 1305/12/3
f 1310/12/3 1302/12/3 1284/12/3
f 1313/12/3 1308/12/3 1305/12/3
f 1313/12/3 1309/12/3 1308/12/3
f 1314/12/3 1311/12/3 1310/12/3
f 1315/12/3 1313/12/3 1312/12/3
f 1316/12/3 1309/12/3 1313/12/3
f 1316/12/3 1313/12/3 1315/12/3
f 1318/12/3 1316/12/3 1315/12/3
f 1318/12/3 1317/12/3 1316/12/3
f 1318/12/3 1315/12/3 1314/12/3
f 1320/12/3 1142/12/3 1082/12/3
f 1320/12/3 1319/12/3 1318/12/3
f 1320/12/3 1154/12/3 1142/12/3
f 1320/12/3 1244/12/3 1154/12/3
f 1320/12/3 1252/12/3 1244/12/3
f 1320/12/3 1318/12/3 1314/12/3
f 1320/12/3 1310/12/3 1284/12/3
f 1320/12/3 1262/12/3 1252/12/3
f 1320/12/3 1284/12/3 1262/12/3
f 1320/12/3 1314/12/3 1310/12/3
f 1321/12/3 1319/12/3 1320/12/3
f 1322/12/4 1323/12/4 1324/12/4
f 1324/12/4 1323/12/4 1325/12/4
f 1325/12/4 1323/12/4 1326/12/4
f 1326/12/4 1323/12/4 1327/12/4
f 1327/12/4 1323/12/4 1328/12/4
f 1328/12/4 1323/12/4 1329/12/4
f 1322/12/4 1324/12/4 1330/12/4
f 1330/12/4 1324/12/4 1331/12/4
f 1325/12/4 1326/12/4 1332/12/4
f 1332/12/4 1326/12/4 1333/12/4
f 1333/12/4 1326/12/4 1334/12/4
f 1334/12/4 1326/12/4 1335/12/4
f 1327/12/4 1328/12/4 1336/12/4
f 1336/12/4 1328/12/4 1337/12/4
f 1337/12/4 1328/12/4 1338/12/4
f 1338/12/4 1328/12/4 1339/12/4
f 1329/12/4 1323/12/4 1340/12/4
f 1340/12/4 1323/12/4 1341/12/4
f 1322/12/4 1330/12/4 1342/12/4
f 1333/12/4 1334/12/4 1345/12/4
f 1345/12/4 1334/12/4 1346/12/4
f 1337/12/4 1338/12/4 1349/12/4
f 1349/12/4 1338/12/4 1350/12/4
f 1341/12/4 1323/12/4 1353/12/4
f 1342/12/4 1343/12/4 1354/12/4
f 1346/12/4 1347/12/4 1355/12/4
f 1344/12/4 1345/12/4 1355/12/4
f 1345/12/4 1346/12/4 1355/12/4
f 1355/12/4 1347/12/4 1356/12/4
f 1350/12/4 1351/12/4 1357/12/4
f 1348/12/4 1349/12/4 1357/12/4
f 1349/12/4 1350/12/4 1357/12/4
f 1357/12/4 1351/12/4 1358/12/4
f 1352/12/4 1353/12/4 1359/12/4
f 1355/12/4 1356/12/4 1360/12/4
f 1358/12/4 1359/12/4 1360/12/4
f 1342/12/4 1354/12/4 1360/12/4
f 1357/12/4 1358/12/4 1360/12/4
f 1356/12/4 1357/12/4 1360/12/4
f 1322/12/4 1342/12/4 1360/12/4
f 1354/12/4 1355/12/4 1360/12/4
f 1360/12/4 1359/12/4 1361/12/4
f 1361/12/4 1359/12/4 1362/12/4
f 1362/12/4 1359/12/4 1363/12/4
f 1322/12/4 1360/12/4 1364/12/4
f 1364/12/4 1360/12/4 1365/12/4
f 1361/12/4 1362/12/4 1366/12/4
f 1366/12/4 1362/12/4 1367/12/4
f 1367/12/4 1362/12/4 1368/12/4
f 1368/12/4 1362/12/4 1369/12/4
f 1363/12/4 1359/12/4 1370/12/4
f 1370/12/4 1359/12/4 1371/12/4
f 1322/12/4 1364/12/4 1372/12/4
f 1367/12/4 1368/12/4 1375/12/4
f 1375/12/4 1368/12/4 1376/12/4
f 1371/12/4 1359/12/4 1379/12/4
f 1379/12/4 1359/12/4 1380/12/4
f 1380/12/4 1359/12/4 1381/12/4
f 1372/12/4 1373/12/4 1382/12/4
f 1376/12/4 1377/12/4 1383/12/4
f 1374/12/4 1375/12/4 1383/12/4
f 1375/12/4 1376/12/4 1383/12/4
f 1383/12/4 1377/12/4 1384/12/4
f 1379/12/4 1380/12/4 1385/12/4
f 1378/12/4 1379/12/4 1385/12/4
f 1385/12/4 1380/12/4 1386/12/4
f 1386/12/4 1380/12/4 1387/12/4
f 1381/12/4 1359/12/4 1388/12/4
f 1388/12/4 1359/12/4 1389/12/4
f 1383/12/4 1384/12/4 1390/12/4
f 1382/12/4 1383/12/4 1390/12/4
f 1385/12/4 1386/12/4 1390/12/4
f 1384/12/4 1385/12/4 1390/12/4
f 1390/12/4 1386/12/4 1391/12/4
f 1391/12/4 1386/12/4 1392/12/4
f 1389/12/4 1359/12/4 1395/12/4
f 1382/12/4 1390/12/4 1396/12/4
f 1396/12/4 1390/12/4 1397/12/4
f 1392/12/4 1393/12/4 1398/12/4
f 1391/12/4 1392/12/4 1398/12/4
f 1398/12/4 1393/12/4 1399/12/4
f 1399/12/4 1393/12/4 1400/12/4
f 1394/12/4 1395/12/4 1401/12/4
f 1382/12/4 1396/12/4 1402/12/4
f 1402/12/4 1396/12/4 1403/12/4
f 1403/12/4 1396/12/4 1404/12/4
f 1400/12/4 1401/12/4 1407/12/4
f 1399/12/4 1400/12/4 1407/12/4
f 1404/12/4 1405/12/4 1408/12/4
f 1403/12/4 1404/12/4 1408/12/4
f 1406/12/4 1407/12/4 1409/12/4
f 1407/12/4 1401/12/4 1410/12/4
f 1409/12/4 1407/12/4 1410/12/4
f 1410/12/4 1401/12/4 1411/12/4
f 1372/12/4 1382/12/4 1412/12/4
f 1382/12/4 1402/12/4 1412/12/4
f 1412/12/4 1402/12/4 1413/12/4
f 1403/12/4 1408/12/4 1414/12/4
f 1408/12/4 1409/12/4 1414/12/4
f 1409/12/4 1410/12/4 1414/12/4
f 1414/12/4 1410/12/4 1415/12/4
f 1415/12/4 1410/12/4 1416/12/4
f 1416/12/4 1410/12/4 1417/12/4
f 1411/12/4 1401/12/4 1418/12/4
f 1418/12/4 1401/12/4 1419/12/4
f 1372/12/4 1412/12/4 1420/12/4
f 1415/12/4 1416/12/4 1423/12/4
f 1423/12/4 1416/12/4 1424/12/4
f 1419/12/4 1401/12/4 1427/12/4
f 1424/12/4 1425/12/4 1428/12/4
f 1422/12/4 1423/12/4 1428/12/4
f 1423/12/4 1424/12/4 1428/12/4
f 1426/12/4 1427/12/4 1429/12/4
f 1420/12/4 1421/12/4 1430/12/4
f 1422/12/4 1428/12/4 1431/12/4
f 1428/12/4 1429/12/4 1431/12/4
f 1420/12/4 1430/12/4 1432/12/4
f 1430/12/4 1431/12/4 1432/12/4
f 1322/12/4 1372/12/4 1432/12/4
f 1372/12/4 1420/12/4 1432/12/4
f 1359/12/4 1353/12/4 1433/12/4
f 1432/12/4 1431/12/4 1433/12/4
f 1353/12/4 1323/12/4 1433/12/4
f 1431/12/4 1429/12/4 1433/12/4
f 1427/12/4 1401/12/4 1433/12/4
f 1429/12/4 1427/12/4 1433/12/4
f 1395/12/4 1359/12/4 1433/12/4
f 1401/12/4 1395/12/4 1433/12/4
f 1436/12/5 1435/12/5 1434/12/5
f 1437/12/5 1435/12/5 1436/12/5
f 1440/8/5 1439/8/5 1438/8/5
f 1441/8/5 1439/8/5 1440/8/5
f 1444/6/5 1443/6/5 1442/6/5
f 1445/6/5 1443/6/5 1444/6/5
f 1446/6/5 1443/6/5 1445/6/5
f 1447/6/5 1443/6/5 1446/6/5
f 1448/8/5 1445/8/5 1444/8/5
f 1449/8/5 1445/8/5 1448/8/5
f 1450/8/5 1447/8/5 1446/8/5
f 1451/8/5 1447/8/5 1450/8/5
f 1454/8/5 1453/8/5 1452/8/5
f 1455/8/5 1453/8/5 1454/8/5
f 1460/8/5 1457/8/5 1456/8/5
f 1461/8/5 1457/8/5 1460/8/5
f 1462/8/5 1459/8/5 1458/8/5
f 1463/8/5 1459/8/5 1462/8/5
f 1468/5/5 1465/5/5 1464/5/5
f 1469/5/5 1465/5/5 1468/5/5
f 1470/5/5 1465/5/5 1469/5/5
f 1471/5/5 1465/5/5 1470/5/5
f 1472/8/5 1467/8/5 1466/8/5
f 1473/8/5 1467/8/5 1472/8/5
f 1474/8/5 1469/8/5 1468/8/5
f 1475/8/5 1469/8/5 1474/8/5
f 1476/8/5 1471/8/5 1470/8/5
f 1477/8/5 1471/8/5 1476/8/5
f 1480/1/5 1479/1/5 1478/1/5
f 1481/1/5 1479/1/5 1480/1/5
f 1482/1/5 1479/1/5 1481/1/5
f 1483/1/5 1479/1/5 1482/1/5
f 1486/8/5 1481/8/5 1480/8/5
f 1487/8/5 1481/8/5 1486/8/5
f 1488/8/5 1483/8/5 1482/8/5
f 1489/8/5 1483/8/5 1488/8/5
f 1490/8/5 1485/8/5 1484/8/5
f 1491/8/5 1485/8/5 1490/8/5
f 1494/2/5 1493/2/5 1492/2/5
f 1495/2/5 1493/2/5 1494/2/5
f 1496/2/5 1493/2/5 1495/2/5
f 1497/2/5 1493/2/5 1496/2/5
f 1500/8/5 1495/8/5 1494/8/5
f 1501/8/5 1495/8/5 1500/8/5
f 1502/8/5 1497/8/5 1496/8/5
f 1503/8/5 1497/8/5 1502/8/5
f 1504/8/5 1499/8/5 1498/8/5
f 1505/8/5 1499/8/5 1504/8/5
f 1508/7/5 1507/7/5 1506/7/5
f 1509/7/5 1507/7/5 1508/7/5
f 1510/7/5 1507/7/5 1509/7/5
f 1511/7/5 1507/7/5 1510/7/5
f 1512/8/5 1509/8/5 1508/8/5
f 1513/8/5 1509/8/5 1512/8/5
f 1514/8/5 1511/8/5 1510/8/5
f 1515/8/5 1511/8/5 1514/8/5
f 1518/8/5 1517/8/5 1516/8/5
f 1519/8/5 1517/8/5 1518/8/5
f 1522/10/5 1521/10/5 1520/10/5
f 1523/10/5 1521/10/5 1522/10/5
f 1524/10/5 1521/10/5 1523/10/5
f 1525/10/5 1521/10/5 1524/10/5
f 1526/8/5 1523/8/5 1522/8/5
f 1527/8/5 1523/8/5 1526/8/5
f 1528/8/5 1525/8/5 1524/8/5
f 1529/8/5 1525/8/5 1528/8/5
f 1532/8/5 1531/8/5 1530/8/5
f 1533/8/5 1531/8/5 1532/8/5
f 1536/3/5 1535/3/5 1534/3/5
f 1537/3/5 1535/3/5 1536/3/5
f 1538/3/5 1535/3/5 1537/3/5
f 1539/3/5 1535/3/5 1538/3/5
f 1540/8/5 1537/8/5 1536/8/5
f 1541/8/5 1537/8/5 1540/8/5
f 1542/8/5 1539/8/5 1538/8/5
f 1543/8/5 1539/8/5 1542/8/5
f 1546/8/5 1545/8/5 1544/8/5
f 1547/8/5 1545/8/5 1546/8/5
f 1550/9/5 1549/9/5 1548/9/5
f 1551/9/5 1549/9/5 1550/9/5
f 1552/9/5 1549/9/5 1551/9/5
f 1553/9/5 1549/9/5 1552/9/5
f 1554/8/5 1551/8/5 1550/8/5
f 1555/8/5 1551/8/5 1554/8/5
f 1556/8/5 1553/8/5 1552/8/5
f 1557/8/5 1553/8/5 1556/8/5
f 1562/12/5 1559/12/5 1558/12/5
f 1563/12/5 1559/12/5 1562/12/5
f 1564/12/5 1561/12/5 1560/12/5
f 1565/12/5 1561/12/5 1564/12/5
f 1572/12/5 1567/12/5 1566/12/5
f 1573/12/5 1567/12/5 1572/12/5
f 1574/12/5 1569/12/5 1568/12/5
f 1575/12/5 1569/12/5 1574/12/5
f 1576/12/5 1571/12/5 1570/12/5
f 1577/12/5 1571/12/5 1576/12/5
f 1584/12/5 1579/12/5 1578/12/5
f 1585/12/5 1579/12/5 1584/12/5
f 1586/12/5 1581/12/5 1580/12/5
f 1587/12/5 1581/12/5 1586/12/5
f 1588/12/5 1583/12/5 1582/12/5
f 1589/12/5 1583/12/5 1588/12/5
f 1592/12/5 1591/12/5 1590/12/5
f 1593/12/5 1591/12/5 1592/12/5
f 1600/11/5 1595/11/5 1594/11/5
f 1601/11/5 1595/11/5 1600/11/5
f 1602/12/5 1597/12/5 1596/12/5
f 1603/12/5 1597/12/5 1602/12/5
f 1604/12/5 1599/12/5 1598/12/5
f 1605/12/5 1599/12/5 1604/12/5
f 1610/4/5 1607/4/5 1606/4/5
f 1611/4/5 1607/4/5 1610/4/5
f 1620/11/5 1609/11/5 1608/11/5
f 1621/11/5 1609/11/5 1620/11/5
f 1622/11/5 1613/11/5 1612/11/5
f 1623/11/5 1613/11/5 1622/11/5
f 1624/12/5 1615/12/5 1614/12/5
f 1625/12/5 1615/12/5 1624/12/5
f 1626/12/5 1617/12/5 1616/12/5
f 1627/12/5 1617/12/5 1626/12/5
f 1628/12/5 1619/12/5 1618/12/5
f 1629/12/5 1619/12/5 1628/12/5
f 1634/4/5 1631/4/5 1630/4/5
f 1635/4/5 1631/4/5 1634/4/5
f 1640/11/5 1633/11/5 1632/11/5
f 1641/11/5 1633/11/5 1640/11/5
f 1642/11/5 1637/11/5 1636/11/5
f 1643/11/5 1637/11/5 1642/11/5
f 1644/12/5 1639/12/5 1638/12/5
f 1645/12/5 1639/12/5 1644/12/5
f 1654/4/5 1647/4/5 1646/4/5
f 1655/4/5 1647/4/5 1654/4/5
f 1658/4/5 1651/4/5 1650/4/5
f 1659/4/5 1651/4/5 1658/4/5
f 1660/4/5 1653/4/5 1652/4/5
f 1661/4/5 1653/4/5 1660/4/5
f 1662/4/5 1647/4/5 1655/4/5
f 1663/4/5 1647/4/5 1662/4/5
f 1664/4/5 1649/4/5 1648/4/5
f 1665/4/5 1649/4/5 1664/4/5
f 1666/4/5 1649/4/5 1665/4/5
f 1667/11/5 1657/11/5 1656/11/5
f 1668/11/5 1657/11/5 1667/11/5
f 1669/11/5 1666/11/5 1665/11/5
f 1670/11/5 1666/11/5 1669/11/5
f 1675/4/5 1672/4/5 1671/4/5
f 1676/4/5 1672/4/5 1675/4/5
f 1687/11/5 1674/11/5 1673/11/5
f 1688/11/5 1674/11/5 1687/11/5
f 1689/11/5 1678/11/5 1677/11/5
f 1690/11/5 1678/11/5 1689/11/5
f 1691/12/5 1680/12/5 1679/12/5
f 1692/12/5 1680/12/5 1691/12/5
f 1693/12/5 1682/12/5 1681/12/5
f 1694/12/5 1682/12/5 1693/12/5
f 1695/12/5 1684/12/5 1683/12/5
f 1696/12/5 1684/12/5 1695/12/5
f 1697/12/5 1686/12/5 1685/12/5
f 1698/12/5 1686/12/5 1697/12/5
f 1709/4/5 1700/4/5 1699/4/5
f 1710/4/5 1700/4/5 1709/4/5
f 1711/4/5 1702/4/5 1701/4/5
f 1712/4/5 1702/4/5 1711/4/5
f 1713/4/5 1704/4/5 1703/4/5
f 1714/4/5 1704/4/5 1713/4/5
f 1715/4/5 1706/4/5 1705/4/5
f 1716/4/5 1706/4/5 1715/4/5
f 1721/11/5 1708/11/5 1707/11/5
f 1722/11/5 1708/11/5 1721/11/5
f 1723/12/5 1718/12/5 1717/12/5
f 1724/12/5 1718/12/5 1723/12/5
f 1725/12/5 1720/12/5 1719/12/5
f 1726/12/5 1720/12/5 1725/12/5
f 1729/4/5 1728/4/5 1727/4/5
f 1730/4/5 1728/4/5 1729/4/5
f 1737/4/5 1732/4/5 1731/4/5
f 1738/4/5 1732/4/5 1737/4/5
f 1739/4/5 1734/4/5 1733/4/5
f 1740/4/5 1734/4/5 1739/4/5
f 1745/11/5 1736/11/5 1735/11/5
f 1746/11/5 1736/11/5 1745/11/5
f 1747/12/5 1742/12/5 1741/12/5
f 1748/12/5 1742/12/5 1747/12/5
f 1749/12/5 1744/12/5 1743/12/5
f 1750/12/5 1744/12/5 1749/12/5
f 1759/4/5 1752/4/5 1751/4/5
f 1760/4/5 1752/4/5 1759/4/5
f 1761/4/5 1754/4/5 1753/4/5
f 1762/4/5 1754/4/5 1761/4/5
f 1763/4/5 1756/4/5 1755/4/5
f 1764/4/5 1756/4/5 1763/4/5
f 1765/4/5 1758/4/5 1757/4/5
f 1766/4/5 1758/4/5 1765/4/5
f 1769/12/5 1768/12/5 1767/12/5
f 1770/12/5 1768/12/5 1769/12/5
f 1777/4/5 1772/4/5 1771/4/5
f 1778/4/5 1772/4/5 1777/4/5
f 1779/4/5 1774/4/5 1773/4/5
f 1780/4/5 1774/4/5 1779/4/5
f 1785/11/5 1776/11/5 1775/11/5
f 1786/11/5 1776/11/5 1785/11/5
f 1787/12/5 1782/12/5 1781/12/5
f 1788/12/5 1782/12/5 1787/12/5
f 1789/12/5 1784/12/5 1783/12/5
f 1790/12/5 1784/12/5 1789/12/5
f 1795/4/5 1792/4/5 1791/4/5
f 1796/4/5 1792/4/5 1795/4/5
f 1797/4/5 1794/4/5 1793/4/5
f 1798/4/5 1794/4/5 1797/4/5
f 1801/12/5 1800/12/5 1799/12/5
f 1802/12/5 1800/12/5 1801/12/5
f 1807/4/5 1804/4/5 1803/4/5
f 1808/4/5 1804/4/5 1807/4/5
f 1809/4/5 1806/4/5 1805/4/5
f 1810/4/5 1806/4/5 1809/4/5
f 1816/4/5 1812/4/5 1811/4/5
f 1819/4/5 1816/4/5 1815/4/5
f 1820/4/5 1812/4/5 1816/4/5
f 1820/4/5 1816/4/5 1819/4/5
f 1821/4/5 1818/4/5 1817/4/5
f 1822/4/5 1818/4/5 1821/4/5
f 1823/4/5 1814/4/5 1813/4/5
f 1824/4/5 1814/4/5 1823/4/5
f 1825/12/6 1826/12/6 1827/12/6
f 1827/12/6 1826/12/6 1828/12/6
f 1829/6/6 1830/6/6 1831/6/6
f 1831/6/6 1830/6/6 1832/6/6
f 1832/6/6 1830/6/6 1833/6/6
f 1833/6/6 1830/6/6 1834/6/6
f 1831/8/6 1832/8/6 1835/8/6
f 1835/8/6 1832/8/6 1836/8/6
f 1833/8/6 1834/8/6 1837/8/6
f 1837/8/6 1834/8/6 1838/8/6
f 1839/8/6 1840/8/6 1841/8/6
f 1841/8/6 1840/8/6 1842/8/6
f 1843/5/6 1844/5/6 1845/5/6
f 1845/5/6 1844/5/6 1846/5/6
f 1846/5/6 1844/5/6 1847/5/6
f 1847/5/6 1844/5/6 1848/5/6
f 1845/8/6 1846/8/6 1849/8/6
f 1849/8/6 1846/8/6 1850/8/6
f 1847/8/6 1848/8/6 1851/8/6
f 1851/8/6 1848/8/6 1852/8/6
f 1853/1/6 1854/1/6 1855/1/6
f 1855/1/6 1854/1/6 1856/1/6
f 1856/1/6 1854/1/6 1857/1/6
f 1857/1/6 1854/1/6 1858/1/6
f 1855/8/6 1856/8/6 1863/8/6
f 1863/8/6 1856/8/6 1864/8/6
f 1857/8/6 1858/8/6 1865/8/6
f 1865/8/6 1858/8/6 1866/8/6
f 1859/8/6 1860/8/6 1867/8/6
f 1867/8/6 1860/8/6 1868/8/6
f 1861/8/6 1862/8/6 1869/8/6
f 1869/8/6 1862/8/6 1870/8/6
f 1871/2/6 1872/2/6 1877/2/6
f 1877/2/6 1872/2/6 1878/2/6
f 1878/2/6 1872/2/6 1879/2/6
f 1879/2/6 1872/2/6 1880/2/6
f 1873/8/6 1874/8/6 1881/8/6
f 1881/8/6 1874/8/6 1882/8/6
f 1875/8/6 1876/8/6 1883/8/6
f 1883/8/6 1876/8/6 1884/8/6
f 1877/8/6 1878/8/6 1885/8/6
f 1885/8/6 1878/8/6 1886/8/6
f 1879/8/6 1880/8/6 1887/8/6
f 1887/8/6 1880/8/6 1888/8/6
f 1889/7/6 1890/7/6 1893/7/6
f 1893/7/6 1890/7/6 1894/7/6
f 1894/7/6 1890/7/6 1895/7/6
f 1895/7/6 1890/7/6 1896/7/6
f 1891/8/6 1892/8/6 1897/8/6
f 1897/8/6 1892/8/6 1898/8/6
f 1893/8/6 1894/8/6 1899/8/6
f 1899/8/6 1894/8/6 1900/8/6
f 1895/8/6 1896/8/6 1901/8/6
f 1901/8/6 1896/8/6 1902/8/6
f 1903/8/6 1904/8/6 1905/8/6
f 1905/8/6 1904/8/6 1906/8/6
f 1907/10/6 1908/10/6 1909/10/6
f 1909/10/6 1908/10/6 1910/10/6
f 1910/10/6 1908/10/6 1911/10/6
f 1911/10/6 1908/10/6 1912/10/6
f 1909/8/6 1910/8/6 1913/8/6
f 1913/8/6 1910/8/6 1914/8/6
f 1911/8/6 1912/8/6 1915/8/6
f 1915/8/6 1912/8/6 1916/8/6
f 1917/8/6 1918/8/6 1919/8/6
f 1919/8/6 1918/8/6 1920/8/6
f 1921/12/6 1922/12/6 1923/12/6
f 1923/12/6 1922/12/6 1924/12/6
f 1925/3/6 1926/3/6 1927/3/6
f 1927/3/6 1926/3/6 1928/3/6
f 1928/3/6 1926/3/6 1929/3/6
f 1929/3/6 1926/3/6 1930/3/6
f 1927/8/6 1928/8/6 1939/8/6
f 1939/8/6 1928/8/6 1940/8/6
f 1929/8/6 1930/8/6 1941/8/6
f 1941/8/6 1930/8/6 1942/8/6
f 1931/12/6 1932/12/6 1943/12/6
f 1943/12/6 1932/12/6 1944/12/6
f 1933/12/6 1934/12/6 1945/12/6
f 1945/12/6 1934/12/6 1946/12/6
f 1935/12/6 1936/12/6 1947/12/6
f 1947/12/6 1936/12/6 1948/12/6
f 1937/12/6 1938/12/6 1949/12/6
f 1949/12/6 1938/12/6 1950/12/6
f 1951/8/6 1952/8/6 1957/8/6
f 1957/8/6 1952/8/6 1958/8/6
f 1953/12/6 1954/12/6 1959/12/6
f 1959/12/6 1954/12/6 1960/12/6
f 1955/12/6 1956/12/6 1961/12/6
f 1961/12/6 1956/12/6 1962/12/6
f 1963/9/6 1964/9/6 1965/9/6
f 1965/9/6 1964/9/6 1966/9/6
f 1966/9/6 1964/9/6 1967/9/6
f 1967/9/6 1964/9/6 1968/9/6
f 1965/8/6 1966/8/6 1973/8/6
f 1973/8/6 1966/8/6 1974/8/6
f 1967/8/6 1968/8/6 1975/8/6
f 1975/8/6 1968/8/6 1976/8/6
f 1969/12/6 1970/12/6 1977/12/6
f 1977/12/6 1970/12/6 1978/12/6
f 1971/12/6 1972/12/6 1979/12/6
f 1979/12/6 1972/12/6 1980/12/6
f 1981/8/6 1982/8/6 1983/8/6
f 1983/8/6 1982/8/6 1984/8/6
f 1985/12/6 1986/12/6 1987/12/6
f 1987/12/6 1986/12/6 1988/12/6
f 1989/12/6 1990/12/6 1995/12/6
f 1995/12/6 1990/12/6 1996/12/6
f 1991/12/6 1992/12/6 1997/12/6
f 1997/12/6 1992/12/6 1998/12/6
f 1993/12/6 1994/12/6 1999/12/6
f 1999/12/6 1994/12/6 2000/12/6
f 2001/12/6 2002/12/6 2005/12/6
f 2005/12/6 2002/12/6 2006/12/6
f 2003/12/6 2004/12/6 2007/12/6
f 2007/12/6 2004/12/6 2008/12/6
f 2009/12/6 2010/12/6 2011/12/6
f 2011/12/6 2010/12/6 2012/12/6
f 2013/4/6 2014/4/6 2015/4/6
f 2015/4/6 2014/4/6 2016/4/6
f 2017/12/6 2018/12/6 2019/12/6
f 2019/12/6 2018/12/6 2020/12/6
f 2021/4/6 2022/4/6 2023/4/6
f 2023/4/6 2022/4/6 2024/4/6
f 2025/12/6 2026/12/6 2033/12/6
f 2033/12/6 2026/12/6 2034/12/6
f 2027/12/6 2028/12/6 2035/12/6
f 2035/12/6 2028/12/6 2036/12/6
f 2029/12/6 2030/12/6 2037/12/6
f 2037/12/6 2030/12/6 2038/12/6
f 2031/12/6 2032/12/6 2039/12/6
f 2039/12/6 2032/12/6 2040/12/6
f 2041/4/6 2042/4/6 2045/4/6
f 2045/4/6 2042/4/6 2046/4/6
f 2043/4/6 2044/4/6 2047/4/6
f 2047/4/6 2044/4/6 2048/4/6
f 2049/4/6 2050/4/6 2051/4/6
f 2051/4/6 2050/4/6 2052/4/6
f 2049/4/6 2051/4/6 2053/4/6
f 2053/4/6 2051/4/6 2054/4/6
f 2055/12/6 2056/12/6 2057/12/6
f 2057/12/6 2056/12/6 2058/12/6
f 2059/4/6 2060/4/6 2067/4/6
f 2067/4/6 2060/4/6 2068/4/6
f 2061/4/6 2062/4/6 2069/4/6
f 2069/4/6 2062/4/6 2070/4/6
f 2063/4/6 2064/4/6 2071/4/6
f 2071/4/6 2064/4/6 2072/4/6
f 2065/4/6 2066/4/6 2073/4/6
f 2073/4/6 2066/4/6 2074/4/6
f 2075/12/6 2076/12/6 2079/12/6
f 2079/12/6 2076/12/6 2080/12/6
f 2077/12/6 2078/12/6 2081/12/6
f 2081/12/6 2078/12/6 2082/12/6
f 2083/4/6 2084/4/6 2085/4/6
f 2085/4/6 2084/4/6 2086/4/6
f 2087/12/6 2088/12/6 2089/12/6
f 2089/12/6 2088/12/6 2090/12/6
f 2091/4/6 2092/4/6 2093/4/6
f 2093/4/6 2092/4/6 2094/4/6
f 2095/12/6 2096/12/6 2099/12/6
f 2099/12/6 2096/12/6 2100/12/6
f 2097/12/6 2098/12/6 2101/12/6
f 2101/12/6 2098/12/6 2102/12/6
f 2103/4/6 2104/4/6 2111/4/6
f 2111/4/6 2104/4/6 2112/4/6
f 2105/4/6 2106/4/6 2113/4/6
f 2113/4/6 2106/4/6 2114/4/6
f 2107/4/6 2108/4/6 2115/4/6
f 2115/4/6 2108/4/6 2116/4/6
f 2109/4/6 2110/4/6 2117/4/6
f 2117/4/6 2110/4/6 2118/4/6
f 2119/4/6 2120/4/6 2123/4/6
f 2123/4/6 2120/4/6 2124/4/6
f 2121/4/6 2122/4/6 2125/4/6
f 2125/4/6 2122/4/6 2126/4/6
f 2127/4/6 2128/4/6 2131/4/6
f 2131/4/6 2128/4/6 2132/4/6
f 2129/4/6 2130/4/6 2133/4/6
f 2133/4/6 2130/4/6 2134/4/6
f 2135/4/6 2136/4/6 2139/4/6
f 2139/4/6 2136/4/6 2140/4/6
f 2137/4/6 2138/4/6 2141/4/6
f 2141/4/6 2138/4/6 2142/4/6
f 2147/4/6 2148/4/6 2154/4/6
f 2151/4/6 2152/4/6 2158/4/6
f 2158/4/6 2152/4/6 2159/4/6
f 2153/4/6 2154/4/6 2160/4/6
f 2154/4/6 2148/4/6 2161/4/6
f 2160/4/6 2154/4/6 2161/4/6
f 2155/4/6 2156/4/6 2162/4/6
f 2162/4/6 2156/4/6 2163/4/6
f 2149/4/6 2150/4/6 2164/4/6
f 2164/4/6 2150/4/6 2165/4/6
f 2145/12/6 2146/12/6 2166/12/6
f 2143/12/6 2144/12/6 2167/12/6
f 2165/11/6 2166/11/6 2168/11/6
f 2164/11/6 2165/11/6 2168/11/6
f 2160/11/6 2161/11/6 2168/11/6
f 2162/11/6 2163/11/6 2168/11/6
f 2163/11/6 2164/11/6 2168/11/6
f 2159/11/6 2160/11/6 2168/11/6
f 2161/11/6 2162/11/6 2168/11/6
f 2158/11/6 2159/11/6 2168/11/6
f 2157/11/6 2158/11/6 2168/11/6
f 2166/12/6 2146/12/6 2169/12/6
f 2168/11/6 2166/11/6 2169/11/6
f 2143/12/6 2167/12/6 2170/12/6
f 2167/12/6 2168/12/6 2170/12/6
f 2168/12/6 2169/12/6 2170/12/6
f 2169/12/6 2146/12/6 2171/12/6
f 2170/12/6 2169/12/6 2171/12/6
